{
  "accessors": [
    {
      "bufferView": 1,
      "componentType": 5126,
      "count": 2018,
      "max": [
        0.65167999267578125,
        0.57117998600006104,
        0.17621000111103058
      ],
      "min": [
        -0.65167999267578125,
        -0.55799001455307007,
        -0.17621000111103058
      ],
      "type": "VEC3"
    },
    {
      "bufferView": 1,
      "byteOffset": 24216,
      "componentType": 5126,
      "count": 2018,
      "max": [
        0.99918967485427856,
        1,
        0.99999445676803589
      ],
      "min": [
        -0.99918967485427856,
        -1,
        -0.99999445676803589
      ],
      "type": "VEC3"
    },
    {
      "bufferView": 0,
      "componentType": 5125,
      "count": 12096,
      "max": [
        2017
      ],
      "min": [
        0
      ],
      "type": "SCALAR"
    },
    {
      "bufferView": 2,
      "componentType": 5126,
      "count": 2,
      "max": [
        1
      ],
      "min": [
        0
      ],
      "type": "SCALAR"
    },
    {
      "bufferView": 3,
      "componentType": 5126,
      "count": 2,
      "max": [
        0,
        0,
        0
      ],
      "min": [
        0,
        0,
        0
      ],
      "type": "VEC3"
    },
    {
      "bufferView": 2,
      "byteOffset": 8,
      "componentType": 5126,
      "count": 2,
      "max": [
        1
      ],
      "min": [
        0
      ],
      "type": "SCALAR"
    },
    {
      "bufferView": 4,
      "componentType": 5126,
      "count": 2,
      "max": [
        0.70710998773574829,
        0,
        0,
        0.70710998773574829
      ],
      "min": [
        0.70710998773574829,
        0,
        0,
        0.70710998773574829
      ],
      "type": "VEC4"
    },
    {
      "bufferView": 2,
      "byteOffset": 16,
      "componentType": 5126,
      "count": 32,
      "max": [
        1
      ],
      "min": [
        0
      ],
      "type": "SCALAR"
    },
    {
      "bufferView": 3,
      "byteOffset": 24,
      "componentType": 5126,
      "count": 32,
      "max": [
        1.1000000238418579,
        1.1000000238418579,
        1.2000000476837158
      ],
      "min": [
        1,
        1,
        1
      ],
      "type": "VEC3"
    }
  ],
  "animations": [
    {
      "channels": [
        {
          "sampler": 0,
          "target": {
            "node": 3,
            "path": "translation"
          }
        },
        {
          "sampler": 1,
          "target": {
            "node": 3,
            "path": "rotation"
          }
        },
        {
          "sampler": 2,
          "target": {
            "node": 3,
            "path": "scale"
          }
        }
      ],
      "name": "heart",
      "samplers": [
        {
          "input": 3,
          "interpolation": "LINEAR",
          "output": 4
        },
        {
          "input": 5,
          "interpolation": "LINEAR",
          "output": 6
        },
        {
          "input": 7,
          "interpolation": "LINEAR",
          "output": 8
        }
      ]
    }
  ],
  "asset": {
    "extras": {
      "author": "JeremyW (https://sketchfab.com/JeremyW)",
      "license": "CC-BY-4.0 (http://creativecommons.org/licenses/by/4.0/)",
      "source": "https://sketchfab.com/models/5948873c2c1e4c6285e3f3d18a9b991c",
      "title": "Beating Heart"
    },
    "generator": "Sketchfab-3.19.8",
    "version": "2.0"
  },
  "bufferViews": [
    {
      "buffer": 0,
      "byteLength": 48384,
      "byteOffset": 0,
      "name": "floatBufferViews",
      "target": 34963
    },
    {
      "buffer": 0,
      "byteLength": 48432,
      "byteOffset": 48384,
      "byteStride": 12,
      "name": "floatBufferViews",
      "target": 34962
    },
    {
      "buffer": 0,
      "byteLength": 144,
      "byteOffset": 96816,
      "name": "floatBufferViews"
    },
    {
      "buffer": 0,
      "byteLength": 408,
      "byteOffset": 96960,
      "byteStride": 12,
      "name": "floatBufferViews"
    },
    {
      "buffer": 0,
      "byteLength": 32,
      "byteOffset": 97368,
      "byteStride": 16,
      "name": "floatBufferViews"
    }
  ],
  "buffers": [
    {
      "byteLength": 97400,
      "uri": "scene.bin"
    }
  ],
  "extensionsRequired": [
    "KHR_materials_pbrSpecularGlossiness"
  ],
  "extensionsUsed": [
    "KHR_materials_pbrSpecularGlossiness"
  ],
  "materials": [
    {
      "doubleSided": true,
      "emissiveFactor": [
        0,
        0,
        0
      ],
      "extensions": {
        "KHR_materials_pbrSpecularGlossiness": {
          "diffuseFactor": [
            0.79910278320000006,
            0,
            0.0091340615999999999,
            1
          ],
          "glossinessFactor": 0.40000000000000002,
          "specularFactor": [
            0,
            0,
            0
          ]
        }
      },
      "name": "heart"
    }
  ],
  "meshes": [
    {
      "name": "heart_0",
      "primitives": [
        {
          "attributes": {
            "NORMAL": 1,
            "POSITION": 0
          },
          "indices": 2,
          "material": 0,
          "mode": 4
        }
      ]
    }
  ],
  "nodes": [
    {
      "children": [
        1
      ],
      "name": "RootNode (gltf orientation matrix)",
      "rotation": [
        -0.70710678118654746,
        -0,
        -0,
        0.70710678118654757
      ]
    },
    {
      "children": [
        2
      ],
      "name": "RootNode (model correction matrix)"
    },
    {
      "children": [
        3
      ],
      "name": "Root"
    },
    {
      "children": [
        4
      ],
      "name": "heart",
      "rotation": [
        0.70710676908493042,
        0,
        0,
        0.70710676908493042
      ]
    },
    {
      "mesh": 0,
      "name": "heart_0"
    }
  ],
  "scene": 0,
  "scenes": [
    {
      "name": "OSG_Scene",
      "nodes": [
        0
      ]
    }
  ]
}

