{
    "asset" : {
        "generator" : "Khronos glTF Blender I/O v1.2.75",
        "version" : "2.0"
    },
    "scene" : 0,
    "scenes" : [
        {
            "name" : "Scene",
            "nodes" : [
                6,
                7,
                8
            ]
        }
    ],
    "nodes" : [
        {
            "mesh" : 0,
            "name" : "donut"
        },
        {
            "children" : [
                0
            ],
            "name" : "Node_5",
            "rotation" : [
                -0.2958913743495941,
                -0.23476098477840424,
                -0.29085367918014526,
                0.8790561556816101
            ],
            "scale" : [
                0.9999979138374329,
                0.9999974966049194,
                0.9999979138374329
            ],
            "translation" : [
                2.1198108196258545,
                -11.770307540893555,
                199.9881134033203
            ]
        },
        {
            "children" : [
                1
            ],
            "name" : "root"
        },
        {
            "children" : [
                2
            ],
            "name" : "RootNode"
        },
        {
            "children" : [
                3
            ],
            "name" : "9f8f30395a844582947780f61fdf81de.fbx",
            "rotation" : [
                0.7071068286895752,
                0,
                0,
                0.7071068286895752
            ]
        },
        {
            "children" : [
                4
            ],
            "name" : "RootNode (model correction matrix)"
        },
        {
            "children" : [
                5
            ],
            "name" : "RootNode (gltf orientation matrix)",
            "rotation" : [
                -0.7071067690849304,
                0,
                0,
                0.7071067690849304
            ]
        },
        {
            "name" : "Light",
            "rotation" : [
                0.16907575726509094,
                0.7558803558349609,
                -0.27217137813568115,
                0.570947527885437
            ],
            "translation" : [
                4.076245307922363,
                5.903861999511719,
                -1.0054539442062378
            ]
        },
        {
            "name" : "Camera",
            "rotation" : [
                0.483536034822464,
                0.33687159419059753,
                -0.20870360732078552,
                0.7804827094078064
            ],
            "translation" : [
                7.358891487121582,
                4.958309173583984,
                6.925790786743164
            ]
        }
    ],
    "animations" : [
        {
            "channels" : [
                {
                    "sampler" : 0,
                    "target" : {
                        "node" : 0,
                        "path" : "translation"
                    }
                },
                {
                    "sampler" : 1,
                    "target" : {
                        "node" : 0,
                        "path" : "rotation"
                    }
                }
            ],
            "name" : "donutAction",
            "samplers" : [
                {
                    "input" : 5,
                    "interpolation" : "LINEAR",
                    "output" : 6
                },
                {
                    "input" : 5,
                    "interpolation" : "LINEAR",
                    "output" : 7
                }
            ]
        }
    ],
    "materials" : [
        {
            "doubleSided" : true,
            "emissiveFactor" : [
                0,
                0,
                0
            ],
            "name" : "Material_94",
            "pbrMetallicRoughness" : {
                "baseColorTexture" : {
                    "index" : 0,
                    "texCoord" : 0
                },
                "metallicFactor" : 0,
                "roughnessFactor" : 0.987379252910614
            }
        }
    ],
    "meshes" : [
        {
            "name" : "root_Material_94_0",
            "primitives" : [
                {
                    "attributes" : {
                        "POSITION" : 0,
                        "NORMAL" : 1,
                        "TANGENT" : 2,
                        "TEXCOORD_0" : 3
                    },
                    "indices" : 4,
                    "material" : 0
                }
            ]
        }
    ],
    "textures" : [
        {
            "source" : 0
        }
    ],
    "images" : [
        {
            "mimeType" : "image/png",
            "name" : "Material_94_baseColor",
            "uri" : "Material_94_baseColor.png"
        }
    ],
    "accessors" : [
        {
            "bufferView" : 0,
            "componentType" : 5126,
            "count" : 6720,
            "max" : [
                240.8004150390625,
                238.90435791015625,
                81.22748565673828
            ],
            "min" : [
                -240.8004150390625,
                -238.90435791015625,
                -81.22748565673828
            ],
            "type" : "VEC3"
        },
        {
            "bufferView" : 1,
            "componentType" : 5126,
            "count" : 6720,
            "type" : "VEC3"
        },
        {
            "bufferView" : 2,
            "componentType" : 5126,
            "count" : 6720,
            "type" : "VEC4"
        },
        {
            "bufferView" : 3,
            "componentType" : 5126,
            "count" : 6720,
            "type" : "VEC2"
        },
        {
            "bufferView" : 4,
            "componentType" : 5123,
            "count" : 37920,
            "type" : "SCALAR"
        },
        {
            "bufferView" : 5,
            "componentType" : 5126,
            "count" : 241,
            "max" : [
                10
            ],
            "min" : [
                0
            ],
            "type" : "SCALAR"
        },
        {
            "bufferView" : 6,
            "componentType" : 5126,
            "count" : 241,
            "type" : "VEC3"
        },
        {
            "bufferView" : 7,
            "componentType" : 5126,
            "count" : 241,
            "type" : "VEC4"
        }
    ],
    "bufferViews" : [
        {
            "buffer" : 0,
            "byteLength" : 80640,
            "byteOffset" : 0
        },
        {
            "buffer" : 0,
            "byteLength" : 80640,
            "byteOffset" : 80640
        },
        {
            "buffer" : 0,
            "byteLength" : 107520,
            "byteOffset" : 161280
        },
        {
            "buffer" : 0,
            "byteLength" : 53760,
            "byteOffset" : 268800
        },
        {
            "buffer" : 0,
            "byteLength" : 75840,
            "byteOffset" : 322560
        },
        {
            "buffer" : 0,
            "byteLength" : 964,
            "byteOffset" : 398400
        },
        {
            "buffer" : 0,
            "byteLength" : 2892,
            "byteOffset" : 399364
        },
        {
            "buffer" : 0,
            "byteLength" : 3856,
            "byteOffset" : 402256
        }
    ],
    "buffers" : [
        {
            "byteLength" : 406112,
            "uri" : "scene.bin"
        }
    ]
}
