{
    "asset" : {
        "generator" : "Khronos glTF Blender I/O v1.2.75",
        "version" : "2.0"
    },
    "scene" : 0,
    "scenes" : [
        {
            "name" : "Scene",
            "nodes" : [
                17,
                18,
                19
            ]
        }
    ],
    "nodes" : [
        {
            "mesh" : 0,
            "name" : "Butter_Butter_0"
        },
        {
            "children" : [
                0
            ],
            "name" : "Butter",
            "rotation" : [
                -0.7071068286895752,
                0,
                0,
                0.7071068286895752
            ],
            "scale" : [
                1.135450005531311,
                1.135450005531311,
                1.135450005531311
            ],
            "translation" : [
                -2.2257590293884277,
                13.445448875427246,
                1.794167160987854
            ]
        },
        {
            "mesh" : 1,
            "name" : "Pancake_Pancake_0"
        },
        {
            "children" : [
                2
            ],
            "name" : "Pancake",
            "rotation" : [
                -0.7071068286895752,
                0,
                0,
                0.7071068286895752
            ],
            "scale" : [
                1.135450005531311,
                1.135450005531311,
                0.882086992263794
            ],
            "translation" : [
                0.44659507274627686,
                2.3331637382507324,
                0.5010908842086792
            ]
        },
        {
            "mesh" : 2,
            "name" : "Pancake001_Pancake_0"
        },
        {
            "children" : [
                4
            ],
            "name" : "Pancake001",
            "rotation" : [
                -0.5792279839515686,
                -0.4055798053741455,
                -0.4055798053741455,
                0.5792279839515686
            ],
            "scale" : [
                1.135450005531311,
                1.135450005531311,
                0.882086992263794
            ],
            "translation" : [
                0.44659507274627686,
                4.997944355010986,
                0.5010908842086792
            ]
        },
        {
            "mesh" : 3,
            "name" : "Pancake002_Pancake_0"
        },
        {
            "children" : [
                6
            ],
            "name" : "Pancake002",
            "rotation" : [
                -0.5609855651855469,
                0.4304593503475189,
                0.4304593503475189,
                0.5609855651855469
            ],
            "scale" : [
                1.135450005531311,
                1.135450005531311,
                0.882086992263794
            ],
            "translation" : [
                0.44659507274627686,
                7.662724494934082,
                0.5010908842086792
            ]
        },
        {
            "mesh" : 4,
            "name" : "Pancake003_Pancake_0"
        },
        {
            "children" : [
                8
            ],
            "name" : "Pancake003",
            "rotation" : [
                -0.6532815098762512,
                0.27059805393218994,
                0.27059805393218994,
                0.6532815098762512
            ],
            "scale" : [
                1.135450005531311,
                1.135450005531311,
                0.882086992263794
            ],
            "translation" : [
                0.44659507274627686,
                10.327506065368652,
                0.5010908842086792
            ]
        },
        {
            "mesh" : 5,
            "name" : "Plane002_03 - Default_0"
        },
        {
            "children" : [
                10
            ],
            "name" : "Plane002",
            "rotation" : [
                -0.7071068286895752,
                0,
                0,
                0.7071068286895752
            ],
            "scale" : [
                1.135450005531311,
                1.135450005531311,
                1.135450005531311
            ],
            "translation" : [
                -0.6859790086746216,
                14.072518348693848,
                2.1198501586914062
            ]
        },
        {
            "mesh" : 6,
            "name" : "Plate_01 - Default_0"
        },
        {
            "children" : [
                12
            ],
            "name" : "Plate",
            "rotation" : [
                -0.7071068286895752,
                0,
                0,
                0.7071068286895752
            ]
        },
        {
            "children" : [
                1,
                3,
                5,
                7,
                9,
                11,
                13
            ],
            "name" : "pancakes"
        },
        {
            "children" : [
                14
            ],
            "name" : "d2cb55d0069e4bb28b39e9f69219477e.fbx",
            "rotation" : [
                0.7071068286895752,
                0,
                0,
                0.7071068286895752
            ]
        },
        {
            "children" : [
                15
            ],
            "name" : "RootNode (model correction matrix)"
        },
        {
            "children" : [
                16
            ],
            "name" : "RootNode (gltf orientation matrix)",
            "rotation" : [
                -0.7071067690849304,
                0,
                0,
                0.7071067690849304
            ]
        },
        {
            "name" : "Light",
            "rotation" : [
                0.16907575726509094,
                0.7558803558349609,
                -0.27217137813568115,
                0.570947527885437
            ],
            "translation" : [
                4.076245307922363,
                5.903861999511719,
                -1.0054539442062378
            ]
        },
        {
            "name" : "Camera",
            "rotation" : [
                0.483536034822464,
                0.33687159419059753,
                -0.20870360732078552,
                0.7804827094078064
            ],
            "translation" : [
                7.358891487121582,
                4.958309173583984,
                6.925790786743164
            ]
        }
    ],
    "animations" : [
        {
            "channels" : [
                {
                    "sampler" : 0,
                    "target" : {
                        "node" : 14,
                        "path" : "translation"
                    }
                },
                {
                    "sampler" : 1,
                    "target" : {
                        "node" : 14,
                        "path" : "rotation"
                    }
                }
            ],
            "name" : "pancakesAction",
            "samplers" : [
                {
                    "input" : 35,
                    "interpolation" : "LINEAR",
                    "output" : 36
                },
                {
                    "input" : 35,
                    "interpolation" : "LINEAR",
                    "output" : 37
                }
            ]
        }
    ],
    "materials" : [
        {
            "doubleSided" : true,
            "emissiveFactor" : [
                1,
                0.9764710068702698,
                0.36862701177597046
            ],
            "name" : "Butter",
            "pbrMetallicRoughness" : {}
        },
        {
            "doubleSided" : true,
            "emissiveFactor" : [
                1,
                1,
                1
            ],
            "emissiveTexture" : {
                "index" : 0,
                "texCoord" : 0
            },
            "name" : "Pancake",
            "pbrMetallicRoughness" : {}
        },
        {
            "doubleSided" : true,
            "emissiveFactor" : [
                1,
                1,
                1
            ],
            "emissiveTexture" : {
                "index" : 1,
                "texCoord" : 0
            },
            "name" : "Pancake_0",
            "pbrMetallicRoughness" : {}
        },
        {
            "alphaMode" : "BLEND",
            "doubleSided" : true,
            "emissiveFactor" : [
                0.4313730001449585,
                0.1411760002374649,
                0
            ],
            "name" : "03_-_Default",
            "pbrMetallicRoughness" : {}
        },
        {
            "emissiveFactor" : [
                0.5098040103912354,
                0.67843097448349,
                0.49411800503730774
            ],
            "name" : "01_-_Default",
            "pbrMetallicRoughness" : {}
        }
    ],
    "meshes" : [
        {
            "name" : "Butter_Butter_0",
            "primitives" : [
                {
                    "attributes" : {
                        "POSITION" : 0,
                        "NORMAL" : 1,
                        "TANGENT" : 2,
                        "TEXCOORD_0" : 3
                    },
                    "indices" : 4,
                    "material" : 0
                }
            ]
        },
        {
            "name" : "Pancake_Pancake_0",
            "primitives" : [
                {
                    "attributes" : {
                        "POSITION" : 5,
                        "NORMAL" : 6,
                        "TANGENT" : 7,
                        "TEXCOORD_0" : 8
                    },
                    "indices" : 9,
                    "material" : 1
                }
            ]
        },
        {
            "name" : "Pancake001_Pancake_0",
            "primitives" : [
                {
                    "attributes" : {
                        "POSITION" : 10,
                        "NORMAL" : 11,
                        "TANGENT" : 12,
                        "TEXCOORD_0" : 13
                    },
                    "indices" : 14,
                    "material" : 1
                }
            ]
        },
        {
            "name" : "Pancake002_Pancake_0",
            "primitives" : [
                {
                    "attributes" : {
                        "POSITION" : 15,
                        "NORMAL" : 16,
                        "TANGENT" : 17,
                        "TEXCOORD_0" : 18
                    },
                    "indices" : 19,
                    "material" : 1
                }
            ]
        },
        {
            "name" : "Pancake003_Pancake_0",
            "primitives" : [
                {
                    "attributes" : {
                        "POSITION" : 20,
                        "NORMAL" : 21,
                        "TANGENT" : 22,
                        "TEXCOORD_0" : 23
                    },
                    "indices" : 24,
                    "material" : 2
                }
            ]
        },
        {
            "name" : "Plane002_03 - Default_0",
            "primitives" : [
                {
                    "attributes" : {
                        "POSITION" : 25,
                        "NORMAL" : 26,
                        "TANGENT" : 27,
                        "TEXCOORD_0" : 28
                    },
                    "indices" : 29,
                    "material" : 3
                }
            ]
        },
        {
            "name" : "Plate_01 - Default_0",
            "primitives" : [
                {
                    "attributes" : {
                        "POSITION" : 30,
                        "NORMAL" : 31,
                        "TANGENT" : 32,
                        "TEXCOORD_0" : 33
                    },
                    "indices" : 34,
                    "material" : 4
                }
            ]
        }
    ],
    "textures" : [
        {
            "source" : 0
        },
        {
            "source" : 0
        }
    ],
    "images" : [
        {
            "mimeType" : "image/png",
            "name" : "Pancake_baseColor",
            "uri" : "Pancake_baseColor.png"
        }
    ],
    "accessors" : [
        {
            "bufferView" : 0,
            "componentType" : 5126,
            "count" : 56,
            "max" : [
                4.10954475402832,
                2.8948023319244385,
                1.1228466033935547
            ],
            "min" : [
                0.5975807905197144,
                -0.617161750793457,
                -0.12583757936954498
            ],
            "type" : "VEC3"
        },
        {
            "bufferView" : 1,
            "componentType" : 5126,
            "count" : 56,
            "type" : "VEC3"
        },
        {
            "bufferView" : 2,
            "componentType" : 5126,
            "count" : 56,
            "type" : "VEC4"
        },
        {
            "bufferView" : 3,
            "componentType" : 5126,
            "count" : 56,
            "type" : "VEC2"
        },
        {
            "bufferView" : 4,
            "componentType" : 5123,
            "count" : 138,
            "type" : "SCALAR"
        },
        {
            "bufferView" : 5,
            "componentType" : 5126,
            "count" : 290,
            "max" : [
                9.418495178222656,
                9.905073165893555,
                3.705953598022461
            ],
            "min" : [
                -10.434746742248535,
                -8.984785079956055,
                -0.5144940614700317
            ],
            "type" : "VEC3"
        },
        {
            "bufferView" : 6,
            "componentType" : 5126,
            "count" : 290,
            "type" : "VEC3"
        },
        {
            "bufferView" : 7,
            "componentType" : 5126,
            "count" : 290,
            "type" : "VEC4"
        },
        {
            "bufferView" : 8,
            "componentType" : 5126,
            "count" : 290,
            "type" : "VEC2"
        },
        {
            "bufferView" : 9,
            "componentType" : 5123,
            "count" : 1536,
            "type" : "SCALAR"
        },
        {
            "bufferView" : 10,
            "componentType" : 5126,
            "count" : 290,
            "max" : [
                9.696149826049805,
                9.29827880859375,
                3.677391290664673
            ],
            "min" : [
                -9.761332511901855,
                -9.061976432800293,
                -0.44900763034820557
            ],
            "type" : "VEC3"
        },
        {
            "bufferView" : 11,
            "componentType" : 5126,
            "count" : 290,
            "type" : "VEC3"
        },
        {
            "bufferView" : 12,
            "componentType" : 5126,
            "count" : 290,
            "type" : "VEC4"
        },
        {
            "bufferView" : 13,
            "componentType" : 5126,
            "count" : 290,
            "type" : "VEC2"
        },
        {
            "bufferView" : 14,
            "componentType" : 5123,
            "count" : 1536,
            "type" : "SCALAR"
        },
        {
            "bufferView" : 15,
            "componentType" : 5126,
            "count" : 290,
            "max" : [
                9.761326789855957,
                9.298637390136719,
                3.649704694747925
            ],
            "min" : [
                -9.74180793762207,
                -9.29680347442627,
                -0.959610104560852
            ],
            "type" : "VEC3"
        },
        {
            "bufferView" : 16,
            "componentType" : 5126,
            "count" : 290,
            "type" : "VEC3"
        },
        {
            "bufferView" : 17,
            "componentType" : 5126,
            "count" : 290,
            "type" : "VEC4"
        },
        {
            "bufferView" : 18,
            "componentType" : 5126,
            "count" : 290,
            "type" : "VEC2"
        },
        {
            "bufferView" : 19,
            "componentType" : 5123,
            "count" : 1536,
            "type" : "SCALAR"
        },
        {
            "bufferView" : 20,
            "componentType" : 5126,
            "count" : 291,
            "max" : [
                7.8500447273254395,
                9.217369079589844,
                3.852552890777588
            ],
            "min" : [
                -9.703163146972656,
                -9.09441089630127,
                -0.7448723316192627
            ],
            "type" : "VEC3"
        },
        {
            "bufferView" : 21,
            "componentType" : 5126,
            "count" : 291,
            "type" : "VEC3"
        },
        {
            "bufferView" : 22,
            "componentType" : 5126,
            "count" : 291,
            "type" : "VEC4"
        },
        {
            "bufferView" : 23,
            "componentType" : 5126,
            "count" : 291,
            "type" : "VEC2"
        },
        {
            "bufferView" : 24,
            "componentType" : 5123,
            "count" : 1536,
            "type" : "SCALAR"
        },
        {
            "bufferView" : 25,
            "componentType" : 5126,
            "count" : 94,
            "max" : [
                7.5150346755981445,
                9.054370880126953,
                0.133721262216568
            ],
            "min" : [
                -9.356207847595215,
                -5.377228260040283,
                -8.843554496765137
            ],
            "type" : "VEC3"
        },
        {
            "bufferView" : 26,
            "componentType" : 5126,
            "count" : 94,
            "type" : "VEC3"
        },
        {
            "bufferView" : 27,
            "componentType" : 5126,
            "count" : 94,
            "type" : "VEC4"
        },
        {
            "bufferView" : 28,
            "componentType" : 5126,
            "count" : 94,
            "type" : "VEC2"
        },
        {
            "bufferView" : 29,
            "componentType" : 5123,
            "count" : 420,
            "type" : "SCALAR"
        },
        {
            "bufferView" : 30,
            "componentType" : 5126,
            "count" : 402,
            "max" : [
                14.203700065612793,
                14.203700065612793,
                3.842681884765625
            ],
            "min" : [
                -14.203700065612793,
                -14.203700065612793,
                0.10170073062181473
            ],
            "type" : "VEC3"
        },
        {
            "bufferView" : 31,
            "componentType" : 5126,
            "count" : 402,
            "type" : "VEC3"
        },
        {
            "bufferView" : 32,
            "componentType" : 5126,
            "count" : 402,
            "type" : "VEC4"
        },
        {
            "bufferView" : 33,
            "componentType" : 5126,
            "count" : 402,
            "type" : "VEC2"
        },
        {
            "bufferView" : 34,
            "componentType" : 5123,
            "count" : 1716,
            "type" : "SCALAR"
        },
        {
            "bufferView" : 35,
            "componentType" : 5126,
            "count" : 241,
            "max" : [
                10
            ],
            "min" : [
                0
            ],
            "type" : "SCALAR"
        },
        {
            "bufferView" : 36,
            "componentType" : 5126,
            "count" : 241,
            "type" : "VEC3"
        },
        {
            "bufferView" : 37,
            "componentType" : 5126,
            "count" : 241,
            "type" : "VEC4"
        }
    ],
    "bufferViews" : [
        {
            "buffer" : 0,
            "byteLength" : 672,
            "byteOffset" : 0
        },
        {
            "buffer" : 0,
            "byteLength" : 672,
            "byteOffset" : 672
        },
        {
            "buffer" : 0,
            "byteLength" : 896,
            "byteOffset" : 1344
        },
        {
            "buffer" : 0,
            "byteLength" : 448,
            "byteOffset" : 2240
        },
        {
            "buffer" : 0,
            "byteLength" : 276,
            "byteOffset" : 2688
        },
        {
            "buffer" : 0,
            "byteLength" : 3480,
            "byteOffset" : 2964
        },
        {
            "buffer" : 0,
            "byteLength" : 3480,
            "byteOffset" : 6444
        },
        {
            "buffer" : 0,
            "byteLength" : 4640,
            "byteOffset" : 9924
        },
        {
            "buffer" : 0,
            "byteLength" : 2320,
            "byteOffset" : 14564
        },
        {
            "buffer" : 0,
            "byteLength" : 3072,
            "byteOffset" : 16884
        },
        {
            "buffer" : 0,
            "byteLength" : 3480,
            "byteOffset" : 19956
        },
        {
            "buffer" : 0,
            "byteLength" : 3480,
            "byteOffset" : 23436
        },
        {
            "buffer" : 0,
            "byteLength" : 4640,
            "byteOffset" : 26916
        },
        {
            "buffer" : 0,
            "byteLength" : 2320,
            "byteOffset" : 31556
        },
        {
            "buffer" : 0,
            "byteLength" : 3072,
            "byteOffset" : 33876
        },
        {
            "buffer" : 0,
            "byteLength" : 3480,
            "byteOffset" : 36948
        },
        {
            "buffer" : 0,
            "byteLength" : 3480,
            "byteOffset" : 40428
        },
        {
            "buffer" : 0,
            "byteLength" : 4640,
            "byteOffset" : 43908
        },
        {
            "buffer" : 0,
            "byteLength" : 2320,
            "byteOffset" : 48548
        },
        {
            "buffer" : 0,
            "byteLength" : 3072,
            "byteOffset" : 50868
        },
        {
            "buffer" : 0,
            "byteLength" : 3492,
            "byteOffset" : 53940
        },
        {
            "buffer" : 0,
            "byteLength" : 3492,
            "byteOffset" : 57432
        },
        {
            "buffer" : 0,
            "byteLength" : 4656,
            "byteOffset" : 60924
        },
        {
            "buffer" : 0,
            "byteLength" : 2328,
            "byteOffset" : 65580
        },
        {
            "buffer" : 0,
            "byteLength" : 3072,
            "byteOffset" : 67908
        },
        {
            "buffer" : 0,
            "byteLength" : 1128,
            "byteOffset" : 70980
        },
        {
            "buffer" : 0,
            "byteLength" : 1128,
            "byteOffset" : 72108
        },
        {
            "buffer" : 0,
            "byteLength" : 1504,
            "byteOffset" : 73236
        },
        {
            "buffer" : 0,
            "byteLength" : 752,
            "byteOffset" : 74740
        },
        {
            "buffer" : 0,
            "byteLength" : 840,
            "byteOffset" : 75492
        },
        {
            "buffer" : 0,
            "byteLength" : 4824,
            "byteOffset" : 76332
        },
        {
            "buffer" : 0,
            "byteLength" : 4824,
            "byteOffset" : 81156
        },
        {
            "buffer" : 0,
            "byteLength" : 6432,
            "byteOffset" : 85980
        },
        {
            "buffer" : 0,
            "byteLength" : 3216,
            "byteOffset" : 92412
        },
        {
            "buffer" : 0,
            "byteLength" : 3432,
            "byteOffset" : 95628
        },
        {
            "buffer" : 0,
            "byteLength" : 964,
            "byteOffset" : 99060
        },
        {
            "buffer" : 0,
            "byteLength" : 2892,
            "byteOffset" : 100024
        },
        {
            "buffer" : 0,
            "byteLength" : 3856,
            "byteOffset" : 102916
        }
    ],
    "buffers" : [
        {
            "byteLength" : 106772,
            "uri" : "scene.bin"
        }
    ]
}
