{
  "accessors": [
    {
      "bufferView": 1,
      "componentType": 5126,
      "count": 7313,
      "max": [
        0.58219563961029053,
        0.20590400695800781,
        0.09786379337310791
      ],
      "min": [
        -0.52754956483840942,
        -0.12996673583984375,
        -1.0585231781005859
      ],
      "type": "VEC3"
    },
    {
      "bufferView": 1,
      "byteOffset": 87756,
      "componentType": 5126,
      "count": 7313,
      "max": [
        0.9942854642868042,
        0.99996352195739746,
        0.99980169534683228
      ],
      "min": [
        -0.99973464012145996,
        -0.99997425079345703,
        -0.99999773502349854
      ],
      "type": "VEC3"
    },
    {
      "bufferView": 2,
      "componentType": 5126,
      "count": 7313,
      "max": [
        0.88235294818878174,
        0.78823530673980713,
        0.65098041296005249,
        1
      ],
      "min": [
        0.24313725531101227,
        0.070588238537311554,
        0,
        1
      ],
      "type": "VEC4"
    },
    {
      "bufferView": 0,
      "componentType": 5125,
      "count": 43866,
      "max": [
        7312
      ],
      "min": [
        0
      ],
      "type": "SCALAR"
    }
  ],
  "asset": {
    "extras": {
      "author": "alecz1k (https://sketchfab.com/alecz1k)",
      "license": "CC-BY-NC-4.0 (http://creativecommons.org/licenses/by-nc/4.0/)",
      "source": "https://sketchfab.com/models/aa2eb2881606467d8176c360f459a9d4",
      "title": "Chocolate chip cookie"
    },
    "generator": "Sketchfab-4.30.3",
    "version": "2.0"
  },
  "bufferViews": [
    {
      "buffer": 0,
      "byteLength": 175464,
      "byteOffset": 0,
      "name": "floatBufferViews",
      "target": 34963
    },
    {
      "buffer": 0,
      "byteLength": 175512,
      "byteOffset": 175464,
      "byteStride": 12,
      "name": "floatBufferViews",
      "target": 34962
    },
    {
      "buffer": 0,
      "byteLength": 117008,
      "byteOffset": 350976,
      "byteStride": 16,
      "name": "floatBufferViews",
      "target": 34962
    }
  ],
  "buffers": [
    {
      "byteLength": 467984,
      "uri": "scene.bin"
    }
  ],
  "extensionsUsed": [
    "KHR_materials_unlit"
  ],
  "materials": [
    {
      "doubleSided": true,
      "extensions": {
        "KHR_materials_unlit": {}
      },
      "name": "Scene_-_Root",
      "pbrMetallicRoughness": {
        "baseColorFactor": [
          1,
          1,
          1,
          1
        ],
        "metallicFactor": 0,
        "roughnessFactor": 1
      }
    }
  ],
  "meshes": [
    {
      "name": "Layer_4__0",
      "primitives": [
        {
          "attributes": {
            "COLOR_0": 2,
            "NORMAL": 1,
            "POSITION": 0
          },
          "indices": 3,
          "material": 0,
          "mode": 4
        }
      ]
    }
  ],
  "nodes": [
    {
      "children": [
        1
      ],
      "name": "RootNode (gltf orientation matrix)",
      "rotation": [
        -0.70710678118654746,
        -0,
        -0,
        0.70710678118654757
      ]
    },
    {
      "children": [
        2
      ],
      "matrix": [
        0.98274415731430054,
        -0.01594209112226963,
        -0.18428175151348114,
        0,
        0.18425750732421875,
        -0.0029890283476561308,
        0.98287343978881836,
        0,
        -0.016219882294535637,
        -0.99986845254898071,
        0,
        0,
        0.015258379280567169,
        0.44261997938156128,
        0.52268320322036743,
        1
      ],
      "name": "RootNode (model correction matrix)"
    },
    {
      "children": [
        3
      ],
      "matrix": [
        1,
        0,
        0,
        0,
        0,
        -1,
        0,
        0,
        0,
        0,
        -1,
        0,
        0,
        0,
        0,
        1
      ],
      "name": "e8b3e2fbd6df411f8b5d9c676fbbb1f1.fbx"
    },
    {
      "children": [
        4
      ],
      "name": "RootNode"
    },
    {
      "children": [
        5
      ],
      "name": "Layer_4"
    },
    {
      "mesh": 0,
      "name": "Layer_4__0"
    }
  ],
  "scene": 0,
  "scenes": [
    {
      "name": "OSG_Scene",
      "nodes": [
        0
      ]
    }
  ]
}

