{
    "asset" : {
        "generator" : "Khronos glTF Blender I/O v1.2.75",
        "version" : "2.0"
    },
    "scene" : 0,
    "scenes" : [
        {
            "name" : "Scene",
            "nodes" : [
                6,
                7,
                8
            ]
        }
    ],
    "nodes" : [
        {
            "mesh" : 0,
            "name" : "cake"
        },
        {
            "children" : [
                0
            ],
            "name" : "Node_5",
            "rotation" : [
                0,
                0.8855850100517273,
                0,
                0.4644775688648224
            ],
            "scale" : [
                0.09791101515293121,
                0.0979110449552536,
                0.09791101515293121
            ],
            "translation" : [
                0.1052132397890091,
                -0.19080589711666107,
                0.3137805759906769
            ]
        },
        {
            "children" : [
                1
            ],
            "name" : "root"
        },
        {
            "children" : [
                2
            ],
            "name" : "RootNode"
        },
        {
            "children" : [
                3
            ],
            "name" : "529eb332cb004d3e95bdf931cb0a542b.fbx",
            "rotation" : [
                0.7071068286895752,
                0,
                0,
                0.7071068286895752
            ]
        },
        {
            "children" : [
                4
            ],
            "name" : "RootNode (model correction matrix)"
        },
        {
            "children" : [
                5
            ],
            "name" : "RootNode (gltf orientation matrix)",
            "rotation" : [
                -0.7071067690849304,
                0,
                0,
                0.7071067690849304
            ]
        },
        {
            "name" : "Light",
            "rotation" : [
                0.16907575726509094,
                0.7558803558349609,
                -0.27217137813568115,
                0.570947527885437
            ],
            "translation" : [
                4.076245307922363,
                5.903861999511719,
                -1.0054539442062378
            ]
        },
        {
            "name" : "Camera",
            "rotation" : [
                0.483536034822464,
                0.33687159419059753,
                -0.20870360732078552,
                0.7804827094078064
            ],
            "translation" : [
                7.358891487121582,
                4.958309173583984,
                6.925790786743164
            ]
        }
    ],
    "animations" : [
        {
            "channels" : [
                {
                    "sampler" : 0,
                    "target" : {
                        "node" : 0,
                        "path" : "translation"
                    }
                },
                {
                    "sampler" : 1,
                    "target" : {
                        "node" : 0,
                        "path" : "rotation"
                    }
                }
            ],
            "name" : "cakeAction",
            "samplers" : [
                {
                    "input" : 12,
                    "interpolation" : "LINEAR",
                    "output" : 13
                },
                {
                    "input" : 12,
                    "interpolation" : "LINEAR",
                    "output" : 14
                }
            ]
        }
    ],
    "materials" : [
        {
            "doubleSided" : true,
            "emissiveFactor" : [
                0,
                0,
                0
            ],
            "name" : "Material_45",
            "pbrMetallicRoughness" : {
                "baseColorTexture" : {
                    "index" : 0,
                    "texCoord" : 0
                },
                "metallicFactor" : 0,
                "roughnessFactor" : 0
            }
        }
    ],
    "meshes" : [
        {
            "name" : "root_Material_45_0",
            "primitives" : [
                {
                    "attributes" : {
                        "POSITION" : 0,
                        "NORMAL" : 1,
                        "TANGENT" : 2,
                        "TEXCOORD_0" : 3,
                        "TEXCOORD_1" : 4,
                        "TEXCOORD_2" : 5,
                        "TEXCOORD_3" : 6,
                        "TEXCOORD_4" : 7,
                        "TEXCOORD_5" : 8,
                        "TEXCOORD_6" : 9,
                        "TEXCOORD_7" : 10
                    },
                    "indices" : 11,
                    "material" : 0
                }
            ]
        }
    ],
    "textures" : [
        {
            "source" : 0
        }
    ],
    "images" : [
        {
            "mimeType" : "image/png",
            "name" : "Material_45_baseColor",
            "uri" : "Material_45_baseColor.png"
        }
    ],
    "accessors" : [
        {
            "bufferView" : 0,
            "componentType" : 5126,
            "count" : 3743,
            "max" : [
                2.6146183013916016,
                4.284173011779785,
                3.2017204761505127
            ],
            "min" : [
                -2.6146183013916016,
                -0.0008447170257568359,
                -3.2157626152038574
            ],
            "type" : "VEC3"
        },
        {
            "bufferView" : 1,
            "componentType" : 5126,
            "count" : 3743,
            "type" : "VEC3"
        },
        {
            "bufferView" : 2,
            "componentType" : 5126,
            "count" : 3743,
            "type" : "VEC4"
        },
        {
            "bufferView" : 3,
            "componentType" : 5126,
            "count" : 3743,
            "type" : "VEC2"
        },
        {
            "bufferView" : 4,
            "componentType" : 5126,
            "count" : 3743,
            "type" : "VEC2"
        },
        {
            "bufferView" : 5,
            "componentType" : 5126,
            "count" : 3743,
            "type" : "VEC2"
        },
        {
            "bufferView" : 6,
            "componentType" : 5126,
            "count" : 3743,
            "type" : "VEC2"
        },
        {
            "bufferView" : 7,
            "componentType" : 5126,
            "count" : 3743,
            "type" : "VEC2"
        },
        {
            "bufferView" : 8,
            "componentType" : 5126,
            "count" : 3743,
            "type" : "VEC2"
        },
        {
            "bufferView" : 9,
            "componentType" : 5126,
            "count" : 3743,
            "type" : "VEC2"
        },
        {
            "bufferView" : 10,
            "componentType" : 5126,
            "count" : 3743,
            "type" : "VEC2"
        },
        {
            "bufferView" : 11,
            "componentType" : 5123,
            "count" : 21114,
            "type" : "SCALAR"
        },
        {
            "bufferView" : 12,
            "componentType" : 5126,
            "count" : 241,
            "max" : [
                10
            ],
            "min" : [
                0
            ],
            "type" : "SCALAR"
        },
        {
            "bufferView" : 13,
            "componentType" : 5126,
            "count" : 241,
            "type" : "VEC3"
        },
        {
            "bufferView" : 14,
            "componentType" : 5126,
            "count" : 241,
            "type" : "VEC4"
        }
    ],
    "bufferViews" : [
        {
            "buffer" : 0,
            "byteLength" : 44916,
            "byteOffset" : 0
        },
        {
            "buffer" : 0,
            "byteLength" : 44916,
            "byteOffset" : 44916
        },
        {
            "buffer" : 0,
            "byteLength" : 59888,
            "byteOffset" : 89832
        },
        {
            "buffer" : 0,
            "byteLength" : 29944,
            "byteOffset" : 149720
        },
        {
            "buffer" : 0,
            "byteLength" : 29944,
            "byteOffset" : 179664
        },
        {
            "buffer" : 0,
            "byteLength" : 29944,
            "byteOffset" : 209608
        },
        {
            "buffer" : 0,
            "byteLength" : 29944,
            "byteOffset" : 239552
        },
        {
            "buffer" : 0,
            "byteLength" : 29944,
            "byteOffset" : 269496
        },
        {
            "buffer" : 0,
            "byteLength" : 29944,
            "byteOffset" : 299440
        },
        {
            "buffer" : 0,
            "byteLength" : 29944,
            "byteOffset" : 329384
        },
        {
            "buffer" : 0,
            "byteLength" : 29944,
            "byteOffset" : 359328
        },
        {
            "buffer" : 0,
            "byteLength" : 42228,
            "byteOffset" : 389272
        },
        {
            "buffer" : 0,
            "byteLength" : 964,
            "byteOffset" : 431500
        },
        {
            "buffer" : 0,
            "byteLength" : 2892,
            "byteOffset" : 432464
        },
        {
            "buffer" : 0,
            "byteLength" : 3856,
            "byteOffset" : 435356
        }
    ],
    "buffers" : [
        {
            "byteLength" : 439212,
            "uri" : "scene.bin"
        }
    ]
}
