{
  "accessors": [
    {
      "bufferView": 2,
      "componentType": 5126,
      "count": 1284,
      "max": [
        0.064658477902412415,
        0.12224842607975006,
        0.040125962346792221
      ],
      "min": [
        -0.040329501032829285,
        -0.056322555989027023,
        -0.058116033673286438
      ],
      "type": "VEC3"
    },
    {
      "bufferView": 2,
      "byteOffset": 15408,
      "componentType": 5126,
      "count": 1284,
      "max": [
        0.99959862232208252,
        0.99034512042999268,
        0.99991220235824585
      ],
      "min": [
        -0.99971109628677368,
        -1,
        -0.99947243928909302
      ],
      "type": "VEC3"
    },
    {
      "bufferView": 1,
      "componentType": 5126,
      "count": 1284,
      "max": [
        0.25822094082832336,
        0.98991352319717407
      ],
      "min": [
        0.10418727993965149,
        0.84045171737670898
      ],
      "type": "VEC2"
    },
    {
      "bufferView": 0,
      "componentType": 5125,
      "count": 3246,
      "max": [
        1283
      ],
      "min": [
        0
      ],
      "type": "SCALAR"
    }
  ],
  "asset": {
    "extras": {
      "author": "Pierre.Bourdon (https://sketchfab.com/Pierre.Bourdon)",
      "license": "CC-BY-4.0 (http://creativecommons.org/licenses/by/4.0/)",
      "source": "https://sketchfab.com/3d-models/fries-midpoly-0ae44b80765143d29125127438f7f8a5",
      "title": "Fries - midpoly"
    },
    "generator": "Sketchfab-8.15.0",
    "version": "2.0"
  },
  "bufferViews": [
    {
      "buffer": 0,
      "byteLength": 12984,
      "byteOffset": 0,
      "name": "floatBufferViews",
      "target": 34963
    },
    {
      "buffer": 0,
      "byteLength": 10272,
      "byteOffset": 12984,
      "byteStride": 8,
      "name": "floatBufferViews",
      "target": 34962
    },
    {
      "buffer": 0,
      "byteLength": 30816,
      "byteOffset": 23256,
      "byteStride": 12,
      "name": "floatBufferViews",
      "target": 34962
    }
  ],
  "buffers": [
    {
      "byteLength": 54072,
      "uri": "scene.bin"
    }
  ],
  "images": [
    {
      "uri": "textures/Material_baseColor.png"
    }
  ],
  "materials": [
    {
      "doubleSided": true,
      "emissiveFactor": [
        0,
        0,
        0
      ],
      "name": "Material",
      "pbrMetallicRoughness": {
        "baseColorFactor": [
          1,
          1,
          1,
          1
        ],
        "baseColorTexture": {
          "index": 0,
          "texCoord": 0
        },
        "metallicFactor": 0,
        "roughnessFactor": 0.82111456180001685
      }
    }
  ],
  "meshes": [
    {
      "name": "fries_Material_0",
      "primitives": [
        {
          "attributes": {
            "NORMAL": 1,
            "POSITION": 0,
            "TEXCOORD_0": 2
          },
          "indices": 3,
          "material": 0,
          "mode": 4
        }
      ]
    }
  ],
  "nodes": [
    {
      "children": [
        1
      ],
      "name": "RootNode (gltf orientation matrix)",
      "rotation": [
        -0.70710678118654746,
        -0,
        -0,
        0.70710678118654757
      ]
    },
    {
      "children": [
        2
      ],
      "name": "RootNode (model correction matrix)"
    },
    {
      "children": [
        3
      ],
      "matrix": [
        1,
        0,
        0,
        0,
        0,
        0,
        1,
        0,
        0,
        -1,
        0,
        0,
        0,
        0,
        0,
        1
      ],
      "name": "62d2e7aba4af44dcb310d72f00a93a3a.fbx"
    },
    {
      "children": [
        4
      ],
      "name": "RootNode"
    },
    {
      "children": [
        5
      ],
      "matrix": [
        56.702178955078125,
        0,
        0,
        0,
        0,
        56.702178955077372,
        9.237957833118816e-06,
        0,
        0,
        -9.237957833118816e-06,
        56.702178955077372,
        0,
        0,
        0,
        0,
        1
      ],
      "name": "fries"
    },
    {
      "mesh": 0,
      "name": "fries_Material_0"
    }
  ],
  "samplers": [
    {
      "magFilter": 9729,
      "minFilter": 9987,
      "wrapS": 10497,
      "wrapT": 10497
    }
  ],
  "scene": 0,
  "scenes": [
    {
      "name": "OSG_Scene",
      "nodes": [
        0
      ]
    }
  ],
  "textures": [
    {
      "sampler": 0,
      "source": 0
    }
  ]
}

