{
    "asset" : {
        "generator" : "Khronos glTF Blender I/O v1.2.75",
        "version" : "2.0"
    },
    "scene" : 0,
    "scenes" : [
        {
            "name" : "Scene",
            "nodes" : [
                6,
                7,
                8
            ]
        }
    ],
    "nodes" : [
        {
            "mesh" : 0,
            "name" : "cookie"
        },
        {
            "children" : [
                0
            ],
            "name" : "node_id29",
            "scale" : [
                0.052442263811826706,
                0.052442263811826706,
                0.052442263811826706
            ],
            "translation" : [
                0,
                -0.04700152575969696,
                0.25600001215934753
            ]
        },
        {
            "children" : [
                1
            ],
            "name" : "root"
        },
        {
            "children" : [
                2
            ],
            "name" : "RootNode"
        },
        {
            "children" : [
                3
            ],
            "name" : "3f4e740c9ee148e9b1c87cc7ac60b7ba.fbx",
            "rotation" : [
                0.7071068286895752,
                0,
                0,
                0.7071068286895752
            ]
        },
        {
            "children" : [
                4
            ],
            "name" : "RootNode (model correction matrix)",
            "rotation" : [
                0,
                0,
                -1,
                -1.4163846715969995e-16
            ],
            "translation" : [
                0,
                -0.5120004415512085,
                0
            ]
        },
        {
            "children" : [
                5
            ],
            "name" : "RootNode (gltf orientation matrix)",
            "rotation" : [
                -0.7071067690849304,
                0,
                0,
                0.7071067690849304
            ]
        },
        {
            "name" : "Light",
            "rotation" : [
                0.16907575726509094,
                0.7558803558349609,
                -0.27217137813568115,
                0.570947527885437
            ],
            "translation" : [
                4.076245307922363,
                5.903861999511719,
                -1.0054539442062378
            ]
        },
        {
            "name" : "Camera",
            "rotation" : [
                0.483536034822464,
                0.33687159419059753,
                -0.20870360732078552,
                0.7804827094078064
            ],
            "translation" : [
                7.358891487121582,
                4.958309173583984,
                6.925790786743164
            ]
        }
    ],
    "animations" : [
        {
            "channels" : [
                {
                    "sampler" : 0,
                    "target" : {
                        "node" : 0,
                        "path" : "translation"
                    }
                },
                {
                    "sampler" : 1,
                    "target" : {
                        "node" : 0,
                        "path" : "rotation"
                    }
                }
            ],
            "name" : "cookieAction",
            "samplers" : [
                {
                    "input" : 12,
                    "interpolation" : "LINEAR",
                    "output" : 13
                },
                {
                    "input" : 12,
                    "interpolation" : "LINEAR",
                    "output" : 14
                }
            ]
        }
    ],
    "materials" : [
        {
            "doubleSided" : true,
            "emissiveFactor" : [
                0,
                0,
                0
            ],
            "name" : "Material_68",
            "pbrMetallicRoughness" : {
                "baseColorFactor" : [
                    0.7761051654815674,
                    0.7761051654815674,
                    0.7761051654815674,
                    1
                ],
                "baseColorTexture" : {
                    "index" : 0,
                    "texCoord" : 0
                },
                "metallicFactor" : 0,
                "roughnessFactor" : 0.6000000238418579
            }
        }
    ],
    "meshes" : [
        {
            "name" : "node_id29_Material_68_0",
            "primitives" : [
                {
                    "attributes" : {
                        "POSITION" : 0,
                        "NORMAL" : 1,
                        "TANGENT" : 2,
                        "TEXCOORD_0" : 3,
                        "TEXCOORD_1" : 4,
                        "TEXCOORD_2" : 5,
                        "TEXCOORD_3" : 6,
                        "TEXCOORD_4" : 7,
                        "TEXCOORD_5" : 8,
                        "TEXCOORD_6" : 9,
                        "TEXCOORD_7" : 10
                    },
                    "indices" : 11,
                    "material" : 0
                }
            ]
        }
    ],
    "textures" : [
        {
            "source" : 0
        }
    ],
    "images" : [
        {
            "mimeType" : "image/png",
            "name" : "Material_68_baseColor",
            "uri" : "Material_68_baseColor.png"
        }
    ],
    "accessors" : [
        {
            "bufferView" : 0,
            "componentType" : 5126,
            "count" : 4448,
            "max" : [
                4.881559371948242,
                1.7925056219100952,
                4.868323802947998
            ],
            "min" : [
                -4.881559371948242,
                0,
                -4.868323802947998
            ],
            "type" : "VEC3"
        },
        {
            "bufferView" : 1,
            "componentType" : 5126,
            "count" : 4448,
            "type" : "VEC3"
        },
        {
            "bufferView" : 2,
            "componentType" : 5126,
            "count" : 4448,
            "type" : "VEC4"
        },
        {
            "bufferView" : 3,
            "componentType" : 5126,
            "count" : 4448,
            "type" : "VEC2"
        },
        {
            "bufferView" : 4,
            "componentType" : 5126,
            "count" : 4448,
            "type" : "VEC2"
        },
        {
            "bufferView" : 5,
            "componentType" : 5126,
            "count" : 4448,
            "type" : "VEC2"
        },
        {
            "bufferView" : 6,
            "componentType" : 5126,
            "count" : 4448,
            "type" : "VEC2"
        },
        {
            "bufferView" : 7,
            "componentType" : 5126,
            "count" : 4448,
            "type" : "VEC2"
        },
        {
            "bufferView" : 8,
            "componentType" : 5126,
            "count" : 4448,
            "type" : "VEC2"
        },
        {
            "bufferView" : 9,
            "componentType" : 5126,
            "count" : 4448,
            "type" : "VEC2"
        },
        {
            "bufferView" : 10,
            "componentType" : 5126,
            "count" : 4448,
            "type" : "VEC2"
        },
        {
            "bufferView" : 11,
            "componentType" : 5123,
            "count" : 24603,
            "type" : "SCALAR"
        },
        {
            "bufferView" : 12,
            "componentType" : 5126,
            "count" : 241,
            "max" : [
                10
            ],
            "min" : [
                0
            ],
            "type" : "SCALAR"
        },
        {
            "bufferView" : 13,
            "componentType" : 5126,
            "count" : 241,
            "type" : "VEC3"
        },
        {
            "bufferView" : 14,
            "componentType" : 5126,
            "count" : 241,
            "type" : "VEC4"
        }
    ],
    "bufferViews" : [
        {
            "buffer" : 0,
            "byteLength" : 53376,
            "byteOffset" : 0
        },
        {
            "buffer" : 0,
            "byteLength" : 53376,
            "byteOffset" : 53376
        },
        {
            "buffer" : 0,
            "byteLength" : 71168,
            "byteOffset" : 106752
        },
        {
            "buffer" : 0,
            "byteLength" : 35584,
            "byteOffset" : 177920
        },
        {
            "buffer" : 0,
            "byteLength" : 35584,
            "byteOffset" : 213504
        },
        {
            "buffer" : 0,
            "byteLength" : 35584,
            "byteOffset" : 249088
        },
        {
            "buffer" : 0,
            "byteLength" : 35584,
            "byteOffset" : 284672
        },
        {
            "buffer" : 0,
            "byteLength" : 35584,
            "byteOffset" : 320256
        },
        {
            "buffer" : 0,
            "byteLength" : 35584,
            "byteOffset" : 355840
        },
        {
            "buffer" : 0,
            "byteLength" : 35584,
            "byteOffset" : 391424
        },
        {
            "buffer" : 0,
            "byteLength" : 35584,
            "byteOffset" : 427008
        },
        {
            "buffer" : 0,
            "byteLength" : 49206,
            "byteOffset" : 462592
        },
        {
            "buffer" : 0,
            "byteLength" : 964,
            "byteOffset" : 511800
        },
        {
            "buffer" : 0,
            "byteLength" : 2892,
            "byteOffset" : 512764
        },
        {
            "buffer" : 0,
            "byteLength" : 3856,
            "byteOffset" : 515656
        }
    ],
    "buffers" : [
        {
            "byteLength" : 519512,
            "uri" : "scene.bin"
        }
    ]
}
