{
  "accessors": [
    {
      "bufferView": 2,
      "componentType": 5126,
      "count": 664,
      "max": [
        87.203826904296875,
        163.4459228515625,
        40.033802032470703
      ],
      "min": [
        -213.40621948242188,
        -166.97538757324219,
        -30.456048965454102
      ],
      "type": "VEC3"
    },
    {
      "bufferView": 2,
      "byteOffset": 7968,
      "componentType": 5126,
      "count": 664,
      "max": [
        0.99752116203308105,
        1,
        1
      ],
      "min": [
        -0.99752116203308105,
        -1,
        -0.99998182058334351
      ],
      "type": "VEC3"
    },
    {
      "bufferView": 3,
      "componentType": 5126,
      "count": 664,
      "max": [
        0.9992097020149231,
        0.99874430894851685,
        0.99887484312057495,
        1
      ],
      "min": [
        -0.98794573545455933,
        -0.99999994039535522,
        -0.99747419357299805,
        -1
      ],
      "type": "VEC4"
    },
    {
      "bufferView": 1,
      "componentType": 5126,
      "count": 664,
      "max": [
        1.0076984167098999,
        0.98874491453170776
      ],
      "min": [
        0.026133149862289429,
        -0.88032221794128418
      ],
      "type": "VEC2"
    },
    {
      "bufferView": 0,
      "componentType": 5125,
      "count": 3192,
      "max": [
        663
      ],
      "min": [
        0
      ],
      "type": "SCALAR"
    },
    {
      "bufferView": 2,
      "byteOffset": 15936,
      "componentType": 5126,
      "count": 1118,
      "max": [
        -22.121664047241211,
        35.269382476806641,
        48.735260009765625
      ],
      "min": [
        -104.08071899414062,
        -34.882434844970703,
        25.145858764648438
      ],
      "type": "VEC3"
    },
    {
      "bufferView": 2,
      "byteOffset": 29352,
      "componentType": 5126,
      "count": 1118,
      "max": [
        1,
        0.99663066864013672,
        0.99956482648849487
      ],
      "min": [
        -1,
        -0.99663102626800537,
        -0.99979472160339355
      ],
      "type": "VEC3"
    },
    {
      "bufferView": 3,
      "byteOffset": 10624,
      "componentType": 5126,
      "count": 1118,
      "max": [
        1,
        0.097842983901500702,
        0.99679619073867798,
        1
      ],
      "min": [
        -1,
        -0.081435523927211761,
        -0.99811738729476929,
        -1
      ],
      "type": "VEC4"
    },
    {
      "bufferView": 1,
      "byteOffset": 5312,
      "componentType": 5126,
      "count": 1118,
      "max": [
        1.0000002384185791,
        1
      ],
      "min": [
        0,
        -1.1920928955078125e-07
      ],
      "type": "VEC2"
    },
    {
      "bufferView": 0,
      "byteOffset": 12768,
      "componentType": 5125,
      "count": 5760,
      "max": [
        1117
      ],
      "min": [
        0
      ],
      "type": "SCALAR"
    }
  ],
  "asset": {
    "extras": {
      "author": "Anthony Yanez (https://sketchfab.com/paulyanez)",
      "license": "CC-BY-4.0 (http://creativecommons.org/licenses/by/4.0/)",
      "source": "https://sketchfab.com/models/c677ff45d94644be9dcf3550e513be30",
      "title": "Super Star (Super Mario Bros)"
    },
    "generator": "Sketchfab-3.54.8-rc1",
    "version": "2.0"
  },
  "bufferViews": [
    {
      "buffer": 0,
      "byteLength": 35808,
      "byteOffset": 0,
      "name": "floatBufferViews",
      "target": 34963
    },
    {
      "buffer": 0,
      "byteLength": 14256,
      "byteOffset": 35808,
      "byteStride": 8,
      "name": "floatBufferViews",
      "target": 34962
    },
    {
      "buffer": 0,
      "byteLength": 42768,
      "byteOffset": 50064,
      "byteStride": 12,
      "name": "floatBufferViews",
      "target": 34962
    },
    {
      "buffer": 0,
      "byteLength": 28512,
      "byteOffset": 92832,
      "byteStride": 16,
      "name": "floatBufferViews",
      "target": 34962
    }
  ],
  "buffers": [
    {
      "byteLength": 121344,
      "uri": "scene.bin"
    }
  ],
  "materials": [
    {
      "doubleSided": true,
      "emissiveFactor": [
        0.5,
        0.30341607819999999,
        0
      ],
      "name": "02_-_Default",
      "pbrMetallicRoughness": {
        "baseColorFactor": [
          0.90196100000000001,
          0.74117599999999995,
          0,
          1
        ],
        "metallicFactor": 1,
        "roughnessFactor": 0.67511432929999993
      }
    },
    {
      "doubleSided": true,
      "emissiveFactor": [
        0,
        0,
        0
      ],
      "name": "03_-_Default",
      "pbrMetallicRoughness": {
        "baseColorFactor": [
          0,
          0,
          0,
          1
        ],
        "metallicFactor": 0.66833334259999999,
        "roughnessFactor": 0
      }
    }
  ],
  "meshes": [
    {
      "name": "Box001_02 - Default_0",
      "primitives": [
        {
          "attributes": {
            "NORMAL": 1,
            "POSITION": 0,
            "TANGENT": 2,
            "TEXCOORD_0": 3
          },
          "indices": 4,
          "material": 0,
          "mode": 4
        }
      ]
    },
    {
      "name": "Box001_03 - Default_0",
      "primitives": [
        {
          "attributes": {
            "NORMAL": 6,
            "POSITION": 5,
            "TANGENT": 7,
            "TEXCOORD_0": 8
          },
          "indices": 9,
          "material": 1,
          "mode": 4
        }
      ]
    }
  ],
  "nodes": [
    {
      "children": [
        1
      ],
      "name": "RootNode (gltf orientation matrix)",
      "rotation": [
        -0.70710678118654746,
        -0,
        -0,
        0.70710678118654757
      ]
    },
    {
      "children": [
        2
      ],
      "name": "RootNode (model correction matrix)"
    },
    {
      "children": [
        3
      ],
      "matrix": [
        1,
        0,
        0,
        0,
        0,
        0,
        1,
        0,
        0,
        -1,
        0,
        0,
        0,
        0,
        0,
        1
      ],
      "name": "2e67b3e6d64247d8a14c98b5ddc54adb.fbx"
    },
    {
      "children": [
        4
      ],
      "name": "RootNode"
    },
    {
      "children": [
        5,
        6
      ],
      "matrix": [
        1,
        0,
        0,
        0,
        0,
        0.99999999999998668,
        1.6292068494294582e-07,
        0,
        0,
        -1.6292068494294582e-07,
        0.99999999999998668,
        0,
        62.947193145751953,
        167.74540710449219,
        7.3323844844708219e-06,
        1
      ],
      "name": "Box001"
    },
    {
      "mesh": 0,
      "name": "Box001_02 - Default_0"
    },
    {
      "mesh": 1,
      "name": "Box001_03 - Default_0"
    }
  ],
  "scene": 0,
  "scenes": [
    {
      "name": "OSG_Scene",
      "nodes": [
        0
      ]
    }
  ]
}

