{
    "asset" : {
        "generator" : "Khronos glTF Blender I/O v1.2.75",
        "version" : "2.0"
    },
    "scene" : 0,
    "scenes" : [
        {
            "name" : "Scene",
            "nodes" : [
                2,
                4,
                5
            ]
        }
    ],
    "nodes" : [
        {
            "name" : "Node_6"
        },
        {
            "children" : [
                0
            ],
            "name" : "Node_5",
            "rotation" : [
                0.7071068286895752,
                0,
                0,
                0.7071068286895752
            ]
        },
        {
            "children" : [
                1
            ],
            "name" : "Light",
            "rotation" : [
                0.16907569766044617,
                0.7558803558349609,
                -0.27217134833335876,
                0.570947527885437
            ],
            "scale" : [
                100.00000762939453,
                100,
                100
            ],
            "translation" : [
                407.6245422363281,
                590.38623046875,
                -100.54539489746094
            ]
        },
        {
            "name" : "Node_8"
        },
        {
            "children" : [
                3
            ],
            "name" : "Camera",
            "rotation" : [
                -0.21255725622177124,
                0.9047970175743103,
                -0.08438937366008759,
                0.3592217266559601
            ],
            "scale" : [
                100,
                100.00000762939453,
                99.99999237060547
            ],
            "translation" : [
                735.88916015625,
                495.8309326171875,
                692.5791015625
            ]
        },
        {
            "mesh" : 0,
            "name" : "star",
            "scale" : [
                0.19427499175071716,
                0.19427502155303955,
                0.19427496194839478
            ]
        }
    ],
    "animations" : [
        {
            "channels" : [
                {
                    "sampler" : 0,
                    "target" : {
                        "node" : 5,
                        "path" : "rotation"
                    }
                },
                {
                    "sampler" : 1,
                    "target" : {
                        "node" : 5,
                        "path" : "translation"
                    }
                }
            ],
            "name" : "flyer",
            "samplers" : [
                {
                    "input" : 10,
                    "interpolation" : "LINEAR",
                    "output" : 11
                },
                {
                    "input" : 10,
                    "interpolation" : "LINEAR",
                    "output" : 12
                }
            ]
        }
    ],
    "materials" : [
        {
            "doubleSided" : true,
            "emissiveFactor" : [
                0,
                0,
                0
            ],
            "name" : "03_-_Default",
            "pbrMetallicRoughness" : {
                "baseColorFactor" : [
                    0,
                    0,
                    0,
                    1
                ],
                "metallicFactor" : 0.6683333516120911,
                "roughnessFactor" : 0
            }
        },
        {
            "doubleSided" : true,
            "emissiveFactor" : [
                0.5,
                0.30341607332229614,
                0
            ],
            "name" : "02_-_Default",
            "pbrMetallicRoughness" : {
                "baseColorFactor" : [
                    0.9019610285758972,
                    0.7411760091781616,
                    0,
                    1
                ],
                "metallicFactor" : 1,
                "roughnessFactor" : 0.6751143336296082
            }
        }
    ],
    "meshes" : [
        {
            "name" : "Box001_03 - Default_0",
            "primitives" : [
                {
                    "attributes" : {
                        "POSITION" : 0,
                        "NORMAL" : 1,
                        "TANGENT" : 2,
                        "TEXCOORD_0" : 3
                    },
                    "indices" : 4,
                    "material" : 0
                },
                {
                    "attributes" : {
                        "POSITION" : 5,
                        "NORMAL" : 6,
                        "TANGENT" : 7,
                        "TEXCOORD_0" : 8
                    },
                    "indices" : 9,
                    "material" : 1
                }
            ]
        }
    ],
    "accessors" : [
        {
            "bufferView" : 0,
            "componentType" : 5126,
            "count" : 1118,
            "max" : [
                40.97956085205078,
                51.46304702758789,
                41.494319915771484
            ],
            "min" : [
                -40.979496002197266,
                -18.688770294189453,
                17.904918670654297
            ],
            "type" : "VEC3"
        },
        {
            "bufferView" : 1,
            "componentType" : 5126,
            "count" : 1118,
            "type" : "VEC3"
        },
        {
            "bufferView" : 2,
            "componentType" : 5126,
            "count" : 1118,
            "type" : "VEC4"
        },
        {
            "bufferView" : 3,
            "componentType" : 5126,
            "count" : 1118,
            "type" : "VEC2"
        },
        {
            "bufferView" : 4,
            "componentType" : 5123,
            "count" : 5760,
            "type" : "SCALAR"
        },
        {
            "bufferView" : 5,
            "componentType" : 5126,
            "count" : 788,
            "max" : [
                150.3050079345703,
                179.63961791992188,
                32.79286193847656
            ],
            "min" : [
                -150.30503845214844,
                -150.78170776367188,
                -37.696990966796875
            ],
            "type" : "VEC3"
        },
        {
            "bufferView" : 6,
            "componentType" : 5126,
            "count" : 788,
            "type" : "VEC3"
        },
        {
            "bufferView" : 7,
            "componentType" : 5126,
            "count" : 788,
            "type" : "VEC4"
        },
        {
            "bufferView" : 8,
            "componentType" : 5126,
            "count" : 788,
            "type" : "VEC2"
        },
        {
            "bufferView" : 9,
            "componentType" : 5123,
            "count" : 3192,
            "type" : "SCALAR"
        },
        {
            "bufferView" : 10,
            "componentType" : 5126,
            "count" : 241,
            "max" : [
                10
            ],
            "min" : [
                0
            ],
            "type" : "SCALAR"
        },
        {
            "bufferView" : 11,
            "componentType" : 5126,
            "count" : 241,
            "type" : "VEC4"
        },
        {
            "bufferView" : 12,
            "componentType" : 5126,
            "count" : 241,
            "type" : "VEC3"
        }
    ],
    "bufferViews" : [
        {
            "buffer" : 0,
            "byteLength" : 13416,
            "byteOffset" : 0
        },
        {
            "buffer" : 0,
            "byteLength" : 13416,
            "byteOffset" : 13416
        },
        {
            "buffer" : 0,
            "byteLength" : 17888,
            "byteOffset" : 26832
        },
        {
            "buffer" : 0,
            "byteLength" : 8944,
            "byteOffset" : 44720
        },
        {
            "buffer" : 0,
            "byteLength" : 11520,
            "byteOffset" : 53664
        },
        {
            "buffer" : 0,
            "byteLength" : 9456,
            "byteOffset" : 65184
        },
        {
            "buffer" : 0,
            "byteLength" : 9456,
            "byteOffset" : 74640
        },
        {
            "buffer" : 0,
            "byteLength" : 12608,
            "byteOffset" : 84096
        },
        {
            "buffer" : 0,
            "byteLength" : 6304,
            "byteOffset" : 96704
        },
        {
            "buffer" : 0,
            "byteLength" : 6384,
            "byteOffset" : 103008
        },
        {
            "buffer" : 0,
            "byteLength" : 964,
            "byteOffset" : 109392
        },
        {
            "buffer" : 0,
            "byteLength" : 3856,
            "byteOffset" : 110356
        },
        {
            "buffer" : 0,
            "byteLength" : 2892,
            "byteOffset" : 114212
        }
    ],
    "buffers" : [
        {
            "byteLength" : 117104,
            "uri" : "scene.bin"
        }
    ]
}
