{
    "asset" : {
        "generator" : "Khronos glTF Blender I/O v1.2.75",
        "version" : "2.0"
    },
    "scene" : 0,
    "scenes" : [
        {
            "name" : "Scene",
            "nodes" : [
                0,
                1,
                2,
                3,
                4,
                5,
                6
            ]
        }
    ],
    "nodes" : [
        {
            "name" : "Light",
            "rotation" : [
                0.16907575726509094,
                0.7558803558349609,
                -0.27217137813568115,
                0.570947527885437
            ],
            "translation" : [
                4.076245307922363,
                5.903861999511719,
                -1.0054539442062378
            ]
        },
        {
            "name" : "Camera",
            "rotation" : [
                0.483536034822464,
                0.33687159419059753,
                -0.20870360732078552,
                0.7804827094078064
            ],
            "translation" : [
                7.358891487121582,
                4.958309173583984,
                6.925790786743164
            ]
        },
        {
            "mesh" : 0,
            "name" : "Sphere",
            "scale" : [
                -5.723288059234619,
                -5.723288059234619,
                -5.723288059234619
            ]
        },
        {
            "name" : "BezierCircle",
            "scale" : [
                6.894754409790039,
                6.894754409790039,
                6.894754409790039
            ]
        },
        {
            "name" : "BezierCircle.001",
            "rotation" : [
                0.5,
                0.5,
                -0.5,
                0.4999999701976776
            ],
            "scale" : [
                6.582913875579834,
                6.582913875579834,
                6.582913875579834
            ]
        },
        {
            "mesh" : 1,
            "name" : "Text",
            "rotation" : [
                -0.7037451863288879,
                -0.0688677579164505,
                0.0688677579164505,
                0.7037451267242432
            ],
            "scale" : [
                -2.3508570194244385,
                -2.3508570194244385,
                -2.3508570194244385
            ],
            "translation" : [
                -5.782569885253906,
                0.25618213415145874,
                -4.092881202697754
            ]
        },
        {
            "mesh" : 2,
            "name" : "Text.001",
            "scale" : [
                1.5025289058685303,
                1.5025289058685303,
                1.5025289058685303
            ],
            "translation" : [
                14.203117370605469,
                0.5780019760131836,
                -0.8104004859924316
            ]
        }
    ],
    "animations" : [
        {
            "channels" : [
                {
                    "sampler" : 0,
                    "target" : {
                        "node" : 2,
                        "path" : "rotation"
                    }
                }
            ],
            "name" : "SphereAction",
            "samplers" : [
                {
                    "input" : 20,
                    "interpolation" : "LINEAR",
                    "output" : 21
                }
            ]
        }
    ],
    "materials" : [
        {
            "doubleSided" : true,
            "emissiveFactor" : [
                0,
                0,
                0
            ],
            "name" : "Material.002",
            "pbrMetallicRoughness" : {
                "baseColorTexture" : {
                    "index" : 0,
                    "texCoord" : 0
                },
                "metallicFactor" : 0,
                "roughnessFactor" : 0.6909090280532837
            }
        },
        {
            "doubleSided" : true,
            "emissiveFactor" : [
                0,
                0,
                0
            ],
            "name" : "Material.005",
            "pbrMetallicRoughness" : {
                "baseColorFactor" : [
                    0.8000000715255737,
                    0.0389627106487751,
                    0.018748896196484566,
                    1
                ],
                "metallicFactor" : 0.38787877559661865,
                "roughnessFactor" : 0.5363636612892151
            }
        },
        {
            "doubleSided" : true,
            "emissiveFactor" : [
                0,
                0,
                0
            ],
            "name" : "Material.006",
            "pbrMetallicRoughness" : {
                "baseColorFactor" : [
                    0.24651865661144257,
                    0.8000000715255737,
                    0.7912535667419434,
                    1
                ],
                "metallicFactor" : 0,
                "roughnessFactor" : 0.5
            }
        },
        {
            "doubleSided" : true,
            "emissiveFactor" : [
                0,
                0,
                0
            ],
            "name" : "Material.004",
            "pbrMetallicRoughness" : {
                "baseColorFactor" : [
                    0.9736256003379822,
                    0.34030699729919434,
                    0.016413772478699684,
                    1
                ],
                "metallicFactor" : 0.5121212005615234,
                "roughnessFactor" : 0.8272727131843567
            }
        }
    ],
    "meshes" : [
        {
            "name" : "Sphere",
            "primitives" : [
                {
                    "attributes" : {
                        "POSITION" : 0,
                        "NORMAL" : 1,
                        "TANGENT" : 2,
                        "TEXCOORD_0" : 3
                    },
                    "indices" : 4,
                    "material" : 0
                }
            ]
        },
        {
            "name" : "Text.005",
            "primitives" : [
                {
                    "attributes" : {
                        "POSITION" : 5,
                        "NORMAL" : 6,
                        "TANGENT" : 7,
                        "TEXCOORD_0" : 8
                    },
                    "indices" : 9,
                    "material" : 1
                },
                {
                    "attributes" : {
                        "POSITION" : 10,
                        "NORMAL" : 11,
                        "TANGENT" : 12,
                        "TEXCOORD_0" : 13
                    },
                    "indices" : 14,
                    "material" : 2
                }
            ]
        },
        {
            "name" : "Text.006",
            "primitives" : [
                {
                    "attributes" : {
                        "POSITION" : 15,
                        "NORMAL" : 16,
                        "TANGENT" : 17,
                        "TEXCOORD_0" : 18
                    },
                    "indices" : 19,
                    "material" : 3
                }
            ]
        }
    ],
    "textures" : [
        {
            "source" : 0
        }
    ],
    "images" : [
        {
            "mimeType" : "image/jpeg",
            "name" : "Material.001_baseColor",
            "uri" : "textures/Material_001_baseColor.jpg"
        }
    ],
    "accessors" : [
        {
            "bufferView" : 0,
            "componentType" : 5126,
            "count" : 508,
            "max" : [
                1.000000238418579,
                1,
                1.0000003576278687
            ],
            "min" : [
                -0.9999998211860657,
                -1,
                -1
            ],
            "type" : "VEC3"
        },
        {
            "bufferView" : 1,
            "componentType" : 5126,
            "count" : 508,
            "type" : "VEC3"
        },
        {
            "bufferView" : 2,
            "componentType" : 5126,
            "count" : 508,
            "type" : "VEC4"
        },
        {
            "bufferView" : 3,
            "componentType" : 5126,
            "count" : 508,
            "type" : "VEC2"
        },
        {
            "bufferView" : 4,
            "componentType" : 5123,
            "count" : 2880,
            "type" : "SCALAR"
        },
        {
            "bufferView" : 5,
            "componentType" : 5126,
            "count" : 3648,
            "max" : [
                -4.837679862976074,
                1.8121429681777954,
                1.9567781686782837
            ],
            "min" : [
                -6.289731502532959,
                -1.1481863260269165,
                0.7701401710510254
            ],
            "type" : "VEC3"
        },
        {
            "bufferView" : 6,
            "componentType" : 5126,
            "count" : 3648,
            "type" : "VEC3"
        },
        {
            "bufferView" : 7,
            "componentType" : 5126,
            "count" : 3648,
            "type" : "VEC4"
        },
        {
            "bufferView" : 8,
            "componentType" : 5126,
            "count" : 3648,
            "type" : "VEC2"
        },
        {
            "bufferView" : 9,
            "componentType" : 5123,
            "count" : 5412,
            "type" : "SCALAR"
        },
        {
            "bufferView" : 10,
            "componentType" : 5126,
            "count" : 2056,
            "max" : [
                -4.898204326629639,
                4.205251693725586,
                1.5205308198928833
            ],
            "min" : [
                -6.224630355834961,
                1.7913240194320679,
                0.4049212336540222
            ],
            "type" : "VEC3"
        },
        {
            "bufferView" : 11,
            "componentType" : 5126,
            "count" : 2056,
            "type" : "VEC3"
        },
        {
            "bufferView" : 12,
            "componentType" : 5126,
            "count" : 2056,
            "type" : "VEC4"
        },
        {
            "bufferView" : 13,
            "componentType" : 5126,
            "count" : 2056,
            "type" : "VEC2"
        },
        {
            "bufferView" : 14,
            "componentType" : 5123,
            "count" : 3072,
            "type" : "SCALAR"
        },
        {
            "bufferView" : 15,
            "componentType" : 5126,
            "count" : 2675,
            "max" : [
                -8.818120956420898,
                5.230220794677734,
                5.028000354766846
            ],
            "min" : [
                -9.318121910095215,
                2.2199437618255615,
                -4.01173734664917
            ],
            "type" : "VEC3"
        },
        {
            "bufferView" : 16,
            "componentType" : 5126,
            "count" : 2675,
            "type" : "VEC3"
        },
        {
            "bufferView" : 17,
            "componentType" : 5126,
            "count" : 2675,
            "type" : "VEC4"
        },
        {
            "bufferView" : 18,
            "componentType" : 5126,
            "count" : 2675,
            "type" : "VEC2"
        },
        {
            "bufferView" : 19,
            "componentType" : 5123,
            "count" : 5508,
            "type" : "SCALAR"
        },
        {
            "bufferView" : 20,
            "componentType" : 5126,
            "count" : 1001,
            "max" : [
                41.666666666666664
            ],
            "min" : [
                0
            ],
            "type" : "SCALAR"
        },
        {
            "bufferView" : 21,
            "componentType" : 5126,
            "count" : 1001,
            "type" : "VEC4"
        }
    ],
    "bufferViews" : [
        {
            "buffer" : 0,
            "byteLength" : 6096,
            "byteOffset" : 0
        },
        {
            "buffer" : 0,
            "byteLength" : 6096,
            "byteOffset" : 6096
        },
        {
            "buffer" : 0,
            "byteLength" : 8128,
            "byteOffset" : 12192
        },
        {
            "buffer" : 0,
            "byteLength" : 4064,
            "byteOffset" : 20320
        },
        {
            "buffer" : 0,
            "byteLength" : 5760,
            "byteOffset" : 24384
        },
        {
            "buffer" : 0,
            "byteLength" : 43776,
            "byteOffset" : 30144
        },
        {
            "buffer" : 0,
            "byteLength" : 43776,
            "byteOffset" : 73920
        },
        {
            "buffer" : 0,
            "byteLength" : 58368,
            "byteOffset" : 117696
        },
        {
            "buffer" : 0,
            "byteLength" : 29184,
            "byteOffset" : 176064
        },
        {
            "buffer" : 0,
            "byteLength" : 10824,
            "byteOffset" : 205248
        },
        {
            "buffer" : 0,
            "byteLength" : 24672,
            "byteOffset" : 216072
        },
        {
            "buffer" : 0,
            "byteLength" : 24672,
            "byteOffset" : 240744
        },
        {
            "buffer" : 0,
            "byteLength" : 32896,
            "byteOffset" : 265416
        },
        {
            "buffer" : 0,
            "byteLength" : 16448,
            "byteOffset" : 298312
        },
        {
            "buffer" : 0,
            "byteLength" : 6144,
            "byteOffset" : 314760
        },
        {
            "buffer" : 0,
            "byteLength" : 32100,
            "byteOffset" : 320904
        },
        {
            "buffer" : 0,
            "byteLength" : 32100,
            "byteOffset" : 353004
        },
        {
            "buffer" : 0,
            "byteLength" : 42800,
            "byteOffset" : 385104
        },
        {
            "buffer" : 0,
            "byteLength" : 21400,
            "byteOffset" : 427904
        },
        {
            "buffer" : 0,
            "byteLength" : 11016,
            "byteOffset" : 449304
        },
        {
            "buffer" : 0,
            "byteLength" : 4004,
            "byteOffset" : 460320
        },
        {
            "buffer" : 0,
            "byteLength" : 16016,
            "byteOffset" : 464324
        }
    ],
    "buffers" : [
        {
            "byteLength" : 480340,
            "uri" : "scene.bin"
        }
    ]
}
