{
    "asset" : {
        "generator" : "Khronos glTF Blender I/O v1.2.75",
        "version" : "2.0"
    },
    "scene" : 0,
    "scenes" : [
        {
            "name" : "Scene",
            "nodes" : [
                11,
                13,
                14,
                15,
                16,
                17,
                18,
                19,
                20
            ]
        }
    ],
    "nodes" : [
        {
            "name" : "Circle",
            "rotation" : [
                -0.7071068286895752,
                0,
                0,
                0.7071067094802856
            ],
            "scale" : [
                100,
                100,
                100
            ]
        },
        {
            "name" : "Circle.001",
            "rotation" : [
                -0.7071068286895752,
                0,
                0,
                0.7071067094802856
            ],
            "scale" : [
                80.77745819091797,
                80.77745819091797,
                116.60484313964844
            ],
            "translation" : [
                -0.7378361821174622,
                64.82161712646484,
                -1.1402971744537354
            ]
        },
        {
            "name" : "Sphere",
            "rotation" : [
                -0.7071068286895752,
                0,
                0,
                0.7071067094802856
            ],
            "scale" : [
                90.31192779541016,
                90.31192779541016,
                33.65176773071289
            ],
            "translation" : [
                0,
                70.48665618896484,
                0
            ]
        },
        {
            "name" : "Sphere.001",
            "rotation" : [
                -0.7071068286895752,
                0,
                0,
                0.7071067094802856
            ],
            "scale" : [
                -9.269147872924805,
                -9.269147872924805,
                -9.269147872924805
            ],
            "translation" : [
                -24.172555923461914,
                127.1805419921875,
                36.43940353393555
            ]
        },
        {
            "name" : "Sphere.002",
            "rotation" : [
                -0.7071068286895752,
                0,
                0,
                0.7071067094802856
            ],
            "scale" : [
                -9.269147872924805,
                -9.269147872924805,
                -9.269147872924805
            ],
            "translation" : [
                18.14170265197754,
                128.1528778076172,
                40.782920837402344
            ]
        },
        {
            "name" : "Sphere.003",
            "rotation" : [
                -0.7071068286895752,
                0,
                0,
                0.7071067094802856
            ],
            "scale" : [
                -4.707295894622803,
                -4.707295894622803,
                -4.707295894622803
            ],
            "translation" : [
                -24.15519142150879,
                127.1805419921875,
                43.10744857788086
            ]
        },
        {
            "mesh" : 0,
            "name" : "Sphere.004_brown_0",
            "translation" : [
                3.996696949005127,
                -10.176515579223633,
                23.837202072143555
            ]
        },
        {
            "children" : [
                6
            ],
            "name" : "Sphere.004",
            "rotation" : [
                -0.7071068286895752,
                0,
                0,
                0.7071067094802856
            ],
            "scale" : [
                -5.360761642456055,
                -5.360761642456055,
                -5.360761642456055
            ],
            "translation" : [
                18.17316246032715,
                128.3165283203125,
                46.57543182373047
            ]
        },
        {
            "children" : [
                0,
                1,
                2,
                3,
                4,
                5,
                7
            ],
            "name" : "RootNode"
        },
        {
            "children" : [
                8
            ],
            "name" : "cc70db2a66a743008e38b10655ebf8b2.fbx",
            "rotation" : [
                0.7071068286895752,
                0,
                0,
                0.7071068286895752
            ]
        },
        {
            "children" : [
                9
            ],
            "name" : "RootNode (model correction matrix)"
        },
        {
            "children" : [
                10
            ],
            "name" : "cupcake",
            "scale" : [
                0.11387225985527039,
                0.11387225985527039,
                0.11387225985527039
            ]
        },
        {
            "name" : "Node_6"
        },
        {
            "children" : [
                12
            ],
            "name" : "Node_5",
            "rotation" : [
                0.7071068286895752,
                0,
                0,
                0.7071068286895752
            ]
        },
        {
            "name" : "Node_8"
        },
        {
            "name" : "Light.001",
            "rotation" : [
                0.16907575726509094,
                0.7558803558349609,
                -0.27217137813568115,
                0.570947527885437
            ],
            "scale" : [
                0.11387227475643158,
                0.11387225985527039,
                0.11387225240468979
            ],
            "translation" : [
                3.8418352603912354,
                3.8807098865509033,
                1.6342318058013916
            ]
        },
        {
            "name" : "Camera.001",
            "rotation" : [
                0.483536034822464,
                0.33687159419059753,
                -0.20870360732078552,
                0.7804827094078064
            ],
            "scale" : [
                0.11387225985527039,
                0.11387225240468979,
                0.11387225985527039
            ],
            "translation" : [
                4.215637683868408,
                3.7730374336242676,
                2.5373802185058594
            ]
        },
        {
            "name" : "Light.002",
            "rotation" : [
                0.16907575726509094,
                0.7558803558349609,
                -0.27217137813568115,
                0.570947527885437
            ],
            "translation" : [
                4.076245307922363,
                5.903861999511719,
                -1.0054539442062378
            ]
        },
        {
            "name" : "Camera.002",
            "rotation" : [
                0.483536034822464,
                0.33687159419059753,
                -0.20870360732078552,
                0.7804827094078064
            ],
            "translation" : [
                7.358891487121582,
                4.958309173583984,
                6.925790786743164
            ]
        },
        {
            "name" : "Light",
            "rotation" : [
                0.16907575726509094,
                0.7558803558349609,
                -0.27217137813568115,
                0.570947527885437
            ],
            "translation" : [
                4.076245307922363,
                5.903861999511719,
                -1.0054539442062378
            ]
        },
        {
            "name" : "Camera",
            "rotation" : [
                0.483536034822464,
                0.33687159419059753,
                -0.20870360732078552,
                0.7804827094078064
            ],
            "translation" : [
                7.358891487121582,
                4.958309173583984,
                6.925790786743164
            ]
        }
    ],
    "animations" : [
        {
            "channels" : [
                {
                    "sampler" : 0,
                    "target" : {
                        "node" : 11,
                        "path" : "translation"
                    }
                },
                {
                    "sampler" : 1,
                    "target" : {
                        "node" : 11,
                        "path" : "rotation"
                    }
                }
            ],
            "name" : "cupcakeAction",
            "samplers" : [
                {
                    "input" : 15,
                    "interpolation" : "LINEAR",
                    "output" : 16
                },
                {
                    "input" : 15,
                    "interpolation" : "LINEAR",
                    "output" : 17
                }
            ]
        }
    ],
    "materials" : [
        {
            "doubleSided" : true,
            "emissiveFactor" : [
                0,
                0,
                0
            ],
            "name" : "brown",
            "pbrMetallicRoughness" : {
                "baseColorFactor" : [
                    0.1133899986743927,
                    0.03427509963512421,
                    0,
                    1
                ],
                "metallicFactor" : 0.837101936340332,
                "roughnessFactor" : 0.9895008206367493
            }
        },
        {
            "doubleSided" : true,
            "emissiveFactor" : [
                0,
                0,
                0
            ],
            "name" : "Material.002",
            "pbrMetallicRoughness" : {
                "baseColorFactor" : [
                    0.18129800260066986,
                    0.058257900178432465,
                    0.004570390097796917,
                    1
                ],
                "metallicFactor" : 0.6785653829574585,
                "roughnessFactor" : 0.9841744303703308
            }
        },
        {
            "doubleSided" : true,
            "emissiveFactor" : [
                0,
                0,
                0
            ],
            "name" : "white",
            "pbrMetallicRoughness" : {
                "baseColorFactor" : [
                    0.7822239398956299,
                    0.7822239398956299,
                    0.7822239398956299,
                    1
                ],
                "metallicFactor" : 0,
                "roughnessFactor" : 0.7628574967384338
            }
        }
    ],
    "meshes" : [
        {
            "name" : "Sphere.004_brown_0",
            "primitives" : [
                {
                    "attributes" : {
                        "POSITION" : 0,
                        "NORMAL" : 1,
                        "TANGENT" : 2,
                        "TEXCOORD_0" : 3
                    },
                    "indices" : 4,
                    "material" : 0
                },
                {
                    "attributes" : {
                        "POSITION" : 5,
                        "NORMAL" : 6,
                        "TANGENT" : 7,
                        "TEXCOORD_0" : 8
                    },
                    "indices" : 9,
                    "material" : 1
                },
                {
                    "attributes" : {
                        "POSITION" : 10,
                        "NORMAL" : 11,
                        "TANGENT" : 12,
                        "TEXCOORD_0" : 13
                    },
                    "indices" : 14,
                    "material" : 2
                }
            ]
        }
    ],
    "accessors" : [
        {
            "bufferView" : 0,
            "componentType" : 5126,
            "count" : 9369,
            "max" : [
                17.621112823486328,
                19.716066360473633,
                0.28559112548828125
            ],
            "min" : [
                -18.834434509277344,
                -16.739465713500977,
                -24.837202072143555
            ],
            "type" : "VEC3"
        },
        {
            "bufferView" : 1,
            "componentType" : 5126,
            "count" : 9369,
            "type" : "VEC3"
        },
        {
            "bufferView" : 2,
            "componentType" : 5126,
            "count" : 9369,
            "type" : "VEC4"
        },
        {
            "bufferView" : 3,
            "componentType" : 5126,
            "count" : 9369,
            "type" : "VEC2"
        },
        {
            "bufferView" : 4,
            "componentType" : 5123,
            "count" : 49536,
            "type" : "SCALAR"
        },
        {
            "bufferView" : 5,
            "componentType" : 5126,
            "count" : 21628,
            "max" : [
                15.23980712890625,
                17.335317611694336,
                -14.83517837524414
            ],
            "min" : [
                -16.4531307220459,
                -14.35871696472168,
                -31.792150497436523
            ],
            "type" : "VEC3"
        },
        {
            "bufferView" : 6,
            "componentType" : 5126,
            "count" : 21628,
            "type" : "VEC3"
        },
        {
            "bufferView" : 7,
            "componentType" : 5126,
            "count" : 21628,
            "type" : "VEC4"
        },
        {
            "bufferView" : 8,
            "componentType" : 5126,
            "count" : 21628,
            "type" : "VEC2"
        },
        {
            "bufferView" : 9,
            "componentType" : 5123,
            "count" : 66816,
            "type" : "SCALAR"
        },
        {
            "bufferView" : 10,
            "componentType" : 5126,
            "count" : 574,
            "max" : [
                5.6315765380859375,
                10.825048446655273,
                -21.89621925354004
            ],
            "min" : [
                -5.7198991775512695,
                6.5566606521606445,
                -25.535743713378906
            ],
            "type" : "VEC3"
        },
        {
            "bufferView" : 11,
            "componentType" : 5126,
            "count" : 574,
            "type" : "VEC3"
        },
        {
            "bufferView" : 12,
            "componentType" : 5126,
            "count" : 574,
            "type" : "VEC4"
        },
        {
            "bufferView" : 13,
            "componentType" : 5126,
            "count" : 574,
            "type" : "VEC2"
        },
        {
            "bufferView" : 14,
            "componentType" : 5123,
            "count" : 2880,
            "type" : "SCALAR"
        },
        {
            "bufferView" : 15,
            "componentType" : 5126,
            "count" : 241,
            "max" : [
                10
            ],
            "min" : [
                0
            ],
            "type" : "SCALAR"
        },
        {
            "bufferView" : 16,
            "componentType" : 5126,
            "count" : 241,
            "type" : "VEC3"
        },
        {
            "bufferView" : 17,
            "componentType" : 5126,
            "count" : 241,
            "type" : "VEC4"
        }
    ],
    "bufferViews" : [
        {
            "buffer" : 0,
            "byteLength" : 112428,
            "byteOffset" : 0
        },
        {
            "buffer" : 0,
            "byteLength" : 112428,
            "byteOffset" : 112428
        },
        {
            "buffer" : 0,
            "byteLength" : 149904,
            "byteOffset" : 224856
        },
        {
            "buffer" : 0,
            "byteLength" : 74952,
            "byteOffset" : 374760
        },
        {
            "buffer" : 0,
            "byteLength" : 99072,
            "byteOffset" : 449712
        },
        {
            "buffer" : 0,
            "byteLength" : 259536,
            "byteOffset" : 548784
        },
        {
            "buffer" : 0,
            "byteLength" : 259536,
            "byteOffset" : 808320
        },
        {
            "buffer" : 0,
            "byteLength" : 346048,
            "byteOffset" : 1067856
        },
        {
            "buffer" : 0,
            "byteLength" : 173024,
            "byteOffset" : 1413904
        },
        {
            "buffer" : 0,
            "byteLength" : 133632,
            "byteOffset" : 1586928
        },
        {
            "buffer" : 0,
            "byteLength" : 6888,
            "byteOffset" : 1720560
        },
        {
            "buffer" : 0,
            "byteLength" : 6888,
            "byteOffset" : 1727448
        },
        {
            "buffer" : 0,
            "byteLength" : 9184,
            "byteOffset" : 1734336
        },
        {
            "buffer" : 0,
            "byteLength" : 4592,
            "byteOffset" : 1743520
        },
        {
            "buffer" : 0,
            "byteLength" : 5760,
            "byteOffset" : 1748112
        },
        {
            "buffer" : 0,
            "byteLength" : 964,
            "byteOffset" : 1753872
        },
        {
            "buffer" : 0,
            "byteLength" : 2892,
            "byteOffset" : 1754836
        },
        {
            "buffer" : 0,
            "byteLength" : 3856,
            "byteOffset" : 1757728
        }
    ],
    "buffers" : [
        {
            "byteLength" : 1761584,
            "uri" : "scene.bin"
        }
    ]
}
