{
    "asset" : {
        "generator" : "Khronos glTF Blender I/O v1.2.75",
        "version" : "2.0"
    },
    "scene" : 0,
    "scenes" : [
        {
            "name" : "Scene",
            "nodes" : [
                6,
                7,
                8
            ]
        }
    ],
    "nodes" : [
        {
            "mesh" : 0,
            "name" : "ice_cream_cone_material-material"
        },
        {
            "children" : [
                0
            ],
            "name" : "ice",
            "scale" : [
                0.9797592759132385,
                0.9797592759132385,
                0.9797592759132385
            ],
            "translation" : [
                0.015854310244321823,
                0,
                1.2866380214691162
            ]
        },
        {
            "mesh" : 1,
            "name" : "icecream_choco_material-material"
        },
        {
            "children" : [
                2
            ],
            "name" : "Icecream",
            "rotation" : [
                0,
                0,
                -0.5689716935157776,
                0.8223571181297302
            ],
            "scale" : [
                1.0353201627731323,
                1.0353201627731323,
                1.0353200435638428
            ],
            "translation" : [
                0.02843179926276207,
                0.022974930703639984,
                1.7279349565505981
            ]
        },
        {
            "children" : [
                1,
                3
            ],
            "name" : "Collada visual scene group"
        },
        {
            "children" : [
                4
            ],
            "name" : "RootNode (model correction matrix)"
        },
        {
            "children" : [
                5
            ],
            "name" : "icecream"
        },
        {
            "name" : "Light",
            "rotation" : [
                0.16907575726509094,
                0.7558803558349609,
                -0.27217137813568115,
                0.570947527885437
            ],
            "translation" : [
                4.076245307922363,
                5.903861999511719,
                -1.0054539442062378
            ]
        },
        {
            "name" : "Camera",
            "rotation" : [
                0.483536034822464,
                0.33687159419059753,
                -0.20870360732078552,
                0.7804827094078064
            ],
            "translation" : [
                7.358891487121582,
                4.958309173583984,
                6.925790786743164
            ]
        }
    ],
    "animations" : [
        {
            "channels" : [
                {
                    "sampler" : 0,
                    "target" : {
                        "node" : 6,
                        "path" : "translation"
                    }
                },
                {
                    "sampler" : 1,
                    "target" : {
                        "node" : 6,
                        "path" : "rotation"
                    }
                }
            ],
            "name" : "icecreamAction",
            "samplers" : [
                {
                    "input" : 10,
                    "interpolation" : "LINEAR",
                    "output" : 11
                },
                {
                    "input" : 10,
                    "interpolation" : "LINEAR",
                    "output" : 12
                }
            ]
        }
    ],
    "materials" : [
        {
            "doubleSided" : true,
            "emissiveFactor" : [
                0,
                0,
                0
            ],
            "name" : "material",
            "pbrMetallicRoughness" : {
                "baseColorTexture" : {
                    "index" : 0,
                    "texCoord" : 0
                },
                "metallicFactor" : 0,
                "roughnessFactor" : 0.6000000238418579
            }
        },
        {
            "doubleSided" : true,
            "emissiveFactor" : [
                0,
                0,
                0
            ],
            "name" : "icecream",
            "pbrMetallicRoughness" : {
                "baseColorFactor" : [
                    0.553459107875824,
                    0.553459107875824,
                    0.553459107875824,
                    1
                ],
                "baseColorTexture" : {
                    "index" : 1,
                    "texCoord" : 0
                },
                "metallicRoughnessTexture" : {
                    "index" : 2,
                    "texCoord" : 0
                }
            }
        }
    ],
    "meshes" : [
        {
            "name" : "ice_cream_cone_material-material",
            "primitives" : [
                {
                    "attributes" : {
                        "POSITION" : 0,
                        "NORMAL" : 1,
                        "TANGENT" : 2,
                        "TEXCOORD_0" : 3
                    },
                    "indices" : 4,
                    "material" : 0
                }
            ]
        },
        {
            "name" : "icecream_choco_material-material",
            "primitives" : [
                {
                    "attributes" : {
                        "POSITION" : 5,
                        "NORMAL" : 6,
                        "TANGENT" : 7,
                        "TEXCOORD_0" : 8
                    },
                    "indices" : 9,
                    "material" : 1
                }
            ]
        }
    ],
    "textures" : [
        {
            "source" : 0
        },
        {
            "source" : 1
        },
        {
            "source" : 2
        }
    ],
    "images" : [
        {
            "mimeType" : "image/jpeg",
            "name" : "material_baseColor",
            "uri" : "material_baseColor.jpg"
        },
        {
            "mimeType" : "image/jpeg",
            "name" : "icecream_baseColor",
            "uri" : "icecream_baseColor.jpg"
        },
        {
            "mimeType" : "image/png",
            "name" : "icecream_metallicRoughness",
            "uri" : "icecream_metallicRoughness.png"
        }
    ],
    "accessors" : [
        {
            "bufferView" : 0,
            "componentType" : 5126,
            "count" : 8761,
            "max" : [
                1.0972390174865723,
                1.0979419946670532,
                1.0686719417572021
            ],
            "min" : [
                -1.098341941833496,
                -1.097936987876892,
                -3.962984085083008
            ],
            "type" : "VEC3"
        },
        {
            "bufferView" : 1,
            "componentType" : 5126,
            "count" : 8761,
            "type" : "VEC3"
        },
        {
            "bufferView" : 2,
            "componentType" : 5126,
            "count" : 8761,
            "type" : "VEC4"
        },
        {
            "bufferView" : 3,
            "componentType" : 5126,
            "count" : 8761,
            "type" : "VEC2"
        },
        {
            "bufferView" : 4,
            "componentType" : 5123,
            "count" : 48948,
            "type" : "SCALAR"
        },
        {
            "bufferView" : 5,
            "componentType" : 5126,
            "count" : 4298,
            "max" : [
                1.3000890016555786,
                1.368224024772644,
                2.1911940574645996
            ],
            "min" : [
                -1.326843023300171,
                -1.354591965675354,
                0.09987837076187134
            ],
            "type" : "VEC3"
        },
        {
            "bufferView" : 6,
            "componentType" : 5126,
            "count" : 4298,
            "type" : "VEC3"
        },
        {
            "bufferView" : 7,
            "componentType" : 5126,
            "count" : 4298,
            "type" : "VEC4"
        },
        {
            "bufferView" : 8,
            "componentType" : 5126,
            "count" : 4298,
            "type" : "VEC2"
        },
        {
            "bufferView" : 9,
            "componentType" : 5123,
            "count" : 23868,
            "type" : "SCALAR"
        },
        {
            "bufferView" : 10,
            "componentType" : 5126,
            "count" : 241,
            "max" : [
                10
            ],
            "min" : [
                0
            ],
            "type" : "SCALAR"
        },
        {
            "bufferView" : 11,
            "componentType" : 5126,
            "count" : 241,
            "type" : "VEC3"
        },
        {
            "bufferView" : 12,
            "componentType" : 5126,
            "count" : 241,
            "type" : "VEC4"
        }
    ],
    "bufferViews" : [
        {
            "buffer" : 0,
            "byteLength" : 105132,
            "byteOffset" : 0
        },
        {
            "buffer" : 0,
            "byteLength" : 105132,
            "byteOffset" : 105132
        },
        {
            "buffer" : 0,
            "byteLength" : 140176,
            "byteOffset" : 210264
        },
        {
            "buffer" : 0,
            "byteLength" : 70088,
            "byteOffset" : 350440
        },
        {
            "buffer" : 0,
            "byteLength" : 97896,
            "byteOffset" : 420528
        },
        {
            "buffer" : 0,
            "byteLength" : 51576,
            "byteOffset" : 518424
        },
        {
            "buffer" : 0,
            "byteLength" : 51576,
            "byteOffset" : 570000
        },
        {
            "buffer" : 0,
            "byteLength" : 68768,
            "byteOffset" : 621576
        },
        {
            "buffer" : 0,
            "byteLength" : 34384,
            "byteOffset" : 690344
        },
        {
            "buffer" : 0,
            "byteLength" : 47736,
            "byteOffset" : 724728
        },
        {
            "buffer" : 0,
            "byteLength" : 964,
            "byteOffset" : 772464
        },
        {
            "buffer" : 0,
            "byteLength" : 2892,
            "byteOffset" : 773428
        },
        {
            "buffer" : 0,
            "byteLength" : 3856,
            "byteOffset" : 776320
        }
    ],
    "buffers" : [
        {
            "byteLength" : 780176,
            "uri" : "scene.bin"
        }
    ]
}
