{
  "accessors": [
    {
      "bufferView": 2,
      "componentType": 5126,
      "count": 130,
      "max": [
        0.95105785131454468,
        1,
        0.99999994039535522
      ],
      "min": [
        -0.95105785131454468,
        0,
        -0.99999994039535522
      ],
      "type": "VEC3"
    },
    {
      "bufferView": 2,
      "byteOffset": 1560,
      "componentType": 5126,
      "count": 130,
      "max": [
        0.99207741022109985,
        0.94352388381958008,
        0.94352155923843384
      ],
      "min": [
        -0.9822458028793335,
        -1,
        -0.94352155923843384
      ],
      "type": "VEC3"
    },
    {
      "bufferView": 1,
      "componentType": 5126,
      "count": 130,
      "max": [
        1,
        0.47238200902938843
      ],
      "min": [
        0.045454498380422592,
        0.23619100451469421
      ],
      "type": "VEC2"
    },
    {
      "bufferView": 0,
      "componentType": 5125,
      "count": 144,
      "max": [
        129
      ],
      "min": [
        0
      ],
      "type": "SCALAR"
    },
    {
      "bufferView": 2,
      "byteOffset": 3120,
      "componentType": 5126,
      "count": 130,
      "max": [
        0.95105785131454468,
        0.67721819877624512,
        0.99999988079071045
      ],
      "min": [
        -0.95105785131454468,
        0.10899531841278076,
        -1
      ],
      "type": "VEC3"
    },
    {
      "bufferView": 2,
      "byteOffset": 4680,
      "componentType": 5126,
      "count": 130,
      "max": [
        0.99526005983352661,
        0.9996873140335083,
        0.93441414833068848
      ],
      "min": [
        -0.97373503446578979,
        -1,
        -0.93441414833068848
      ],
      "type": "VEC3"
    },
    {
      "bufferView": 1,
      "byteOffset": 1040,
      "componentType": 5126,
      "count": 130,
      "max": [
        1,
        0.47238200902938843
      ],
      "min": [
        0.045454498380422592,
        0.23619100451469421
      ],
      "type": "VEC2"
    },
    {
      "bufferView": 0,
      "byteOffset": 576,
      "componentType": 5125,
      "count": 144,
      "max": [
        129
      ],
      "min": [
        0
      ],
      "type": "SCALAR"
    },
    {
      "bufferView": 2,
      "byteOffset": 6240,
      "componentType": 5126,
      "count": 262,
      "max": [
        1.0193535089492798,
        0.096604824066162109,
        1.0065481662750244
      ],
      "min": [
        -1.0004973411560059,
        -0.1034453883767128,
        -1.0148484706878662
      ],
      "type": "VEC3"
    },
    {
      "bufferView": 2,
      "byteOffset": 9384,
      "componentType": 5126,
      "count": 262,
      "max": [
        0.49357479810714722,
        0.99964344501495361,
        0.768932044506073
      ],
      "min": [
        -0.61407679319381714,
        0.57003402709960938,
        -0.58813172578811646
      ],
      "type": "VEC3"
    },
    {
      "bufferView": 1,
      "byteOffset": 2080,
      "componentType": 5126,
      "count": 262,
      "max": [
        1.0085841417312622,
        1
      ],
      "min": [
        0,
        0
      ],
      "type": "VEC2"
    },
    {
      "bufferView": 0,
      "byteOffset": 1152,
      "componentType": 5125,
      "count": 288,
      "max": [
        261
      ],
      "min": [
        0
      ],
      "type": "SCALAR"
    },
    {
      "bufferView": 2,
      "byteOffset": 12528,
      "componentType": 5126,
      "count": 120,
      "max": [
        1,
        1,
        1
      ],
      "min": [
        -1,
        -1,
        -1
      ],
      "type": "VEC3"
    },
    {
      "bufferView": 2,
      "byteOffset": 13968,
      "componentType": 5126,
      "count": 120,
      "max": [
        0.98768836259841919,
        1,
        0.98768848180770874
      ],
      "min": [
        -0.98768848180770874,
        -1,
        -0.98768848180770874
      ],
      "type": "VEC3"
    },
    {
      "bufferView": 1,
      "byteOffset": 4176,
      "componentType": 5126,
      "count": 120,
      "max": [
        1,
        1
      ],
      "min": [
        -1.5646219253540039e-07,
        0.01000000536441803
      ],
      "type": "VEC2"
    },
    {
      "bufferView": 0,
      "byteOffset": 2304,
      "componentType": 5125,
      "count": 228,
      "max": [
        119
      ],
      "min": [
        0
      ],
      "type": "SCALAR"
    },
    {
      "bufferView": 2,
      "byteOffset": 15408,
      "componentType": 5126,
      "count": 228,
      "max": [
        0.97562724351882935,
        -0.027821609750390053,
        1.0003088712692261
      ],
      "min": [
        -1.0303241014480591,
        -0.12025661021471024,
        -1
      ],
      "type": "VEC3"
    },
    {
      "bufferView": 2,
      "byteOffset": 18144,
      "componentType": 5126,
      "count": 228,
      "max": [
        0.99917834997177124,
        0.99986797571182251,
        0.99975639581680298
      ],
      "min": [
        -0.99917834997177124,
        -0.99986797571182251,
        -0.99975544214248657
      ],
      "type": "VEC3"
    },
    {
      "bufferView": 1,
      "byteOffset": 5136,
      "componentType": 5126,
      "count": 228,
      "max": [
        1,
        1
      ],
      "min": [
        0,
        0
      ],
      "type": "VEC2"
    },
    {
      "bufferView": 0,
      "byteOffset": 3216,
      "componentType": 5125,
      "count": 372,
      "max": [
        227
      ],
      "min": [
        0
      ],
      "type": "SCALAR"
    },
    {
      "bufferView": 2,
      "byteOffset": 20880,
      "componentType": 5126,
      "count": 262,
      "max": [
        1.0193535089492798,
        0.096604824066162109,
        1.0065481662750244
      ],
      "min": [
        -1.0004973411560059,
        -0.1034453883767128,
        -1.0148484706878662
      ],
      "type": "VEC3"
    },
    {
      "bufferView": 2,
      "byteOffset": 24024,
      "componentType": 5126,
      "count": 262,
      "max": [
        0.49357479810714722,
        0.99964344501495361,
        0.768932044506073
      ],
      "min": [
        -0.61407679319381714,
        0.57003402709960938,
        -0.58813172578811646
      ],
      "type": "VEC3"
    },
    {
      "bufferView": 1,
      "byteOffset": 6960,
      "componentType": 5126,
      "count": 262,
      "max": [
        1.0085841417312622,
        1
      ],
      "min": [
        0,
        0
      ],
      "type": "VEC2"
    },
    {
      "bufferView": 0,
      "byteOffset": 4704,
      "componentType": 5125,
      "count": 288,
      "max": [
        261
      ],
      "min": [
        0
      ],
      "type": "SCALAR"
    },
    {
      "bufferView": 2,
      "byteOffset": 27168,
      "componentType": 5126,
      "count": 120,
      "max": [
        1,
        1,
        1
      ],
      "min": [
        -1,
        -1,
        -1
      ],
      "type": "VEC3"
    },
    {
      "bufferView": 2,
      "byteOffset": 28608,
      "componentType": 5126,
      "count": 120,
      "max": [
        0.98768836259841919,
        1,
        0.98768848180770874
      ],
      "min": [
        -0.98768848180770874,
        -1,
        -0.98768848180770874
      ],
      "type": "VEC3"
    },
    {
      "bufferView": 1,
      "byteOffset": 9056,
      "componentType": 5126,
      "count": 120,
      "max": [
        1,
        1
      ],
      "min": [
        -1.5646219253540039e-07,
        0.01000000536441803
      ],
      "type": "VEC2"
    },
    {
      "bufferView": 0,
      "byteOffset": 5856,
      "componentType": 5125,
      "count": 228,
      "max": [
        119
      ],
      "min": [
        0
      ],
      "type": "SCALAR"
    },
    {
      "bufferView": 2,
      "byteOffset": 30048,
      "componentType": 5126,
      "count": 228,
      "max": [
        0.97562724351882935,
        -0.027821609750390053,
        1.0003088712692261
      ],
      "min": [
        -1.0303241014480591,
        -0.12025661021471024,
        -1
      ],
      "type": "VEC3"
    },
    {
      "bufferView": 2,
      "byteOffset": 32784,
      "componentType": 5126,
      "count": 228,
      "max": [
        0.99917834997177124,
        0.99986797571182251,
        0.99975639581680298
      ],
      "min": [
        -0.99917834997177124,
        -0.99986797571182251,
        -0.99975544214248657
      ],
      "type": "VEC3"
    },
    {
      "bufferView": 1,
      "byteOffset": 10016,
      "componentType": 5126,
      "count": 228,
      "max": [
        1,
        1
      ],
      "min": [
        0,
        0
      ],
      "type": "VEC2"
    },
    {
      "bufferView": 0,
      "byteOffset": 6768,
      "componentType": 5125,
      "count": 372,
      "max": [
        227
      ],
      "min": [
        0
      ],
      "type": "SCALAR"
    }
  ],
  "asset": {
    "extras": {
      "author": "GeniusA1 (https://sketchfab.com/GeniusA1)",
      "license": "CC-BY-4.0 (http://creativecommons.org/licenses/by/4.0/)",
      "source": "https://sketchfab.com/3d-models/burger-ecdfbad0f8fd4cec967a09f19f1556c1",
      "title": "Burger"
    },
    "generator": "Sketchfab-8.20.0",
    "version": "2.0"
  },
  "bufferViews": [
    {
      "buffer": 0,
      "byteLength": 8256,
      "byteOffset": 0,
      "name": "floatBufferViews",
      "target": 34963
    },
    {
      "buffer": 0,
      "byteLength": 11840,
      "byteOffset": 8256,
      "byteStride": 8,
      "name": "floatBufferViews",
      "target": 34962
    },
    {
      "buffer": 0,
      "byteLength": 35520,
      "byteOffset": 20096,
      "byteStride": 12,
      "name": "floatBufferViews",
      "target": 34962
    }
  ],
  "buffers": [
    {
      "byteLength": 55616,
      "uri": "scene.bin"
    }
  ],
  "materials": [
    {
      "doubleSided": true,
      "emissiveFactor": [
        0,
        0,
        0
      ],
      "name": "Material.001",
      "pbrMetallicRoughness": {
        "baseColorFactor": [
          0.80000000000000004,
          0.36260700000000001,
          0.056585700000000003,
          1
        ],
        "metallicFactor": 0,
        "roughnessFactor": 0.5
      }
    },
    {
      "doubleSided": true,
      "emissiveFactor": [
        0,
        0,
        0
      ],
      "name": "Material.002",
      "pbrMetallicRoughness": {
        "baseColorFactor": [
          0.80000000000000004,
          0.41413100000000003,
          0.117898,
          1
        ],
        "metallicFactor": 0,
        "roughnessFactor": 0.5
      }
    },
    {
      "doubleSided": true,
      "emissiveFactor": [
        0,
        0,
        0
      ],
      "name": "Material.008",
      "pbrMetallicRoughness": {
        "baseColorFactor": [
          0.0464076,
          0.52424700000000002,
          0.0073434900000000003,
          1
        ],
        "metallicFactor": 0,
        "roughnessFactor": 0.5
      }
    },
    {
      "doubleSided": true,
      "emissiveFactor": [
        0,
        0,
        0
      ],
      "name": "Material.007",
      "pbrMetallicRoughness": {
        "baseColorFactor": [
          0.21609900000000001,
          0.084506200000000004,
          0.042570900000000002,
          1
        ],
        "metallicFactor": 0,
        "roughnessFactor": 0.5
      }
    },
    {
      "doubleSided": true,
      "emissiveFactor": [
        0,
        0,
        0
      ],
      "name": "Material.006",
      "pbrMetallicRoughness": {
        "baseColorFactor": [
          0.731429,
          0.80000000000000004,
          0.017532200000000001,
          1
        ],
        "metallicFactor": 0,
        "roughnessFactor": 0.5
      }
    },
    {
      "doubleSided": true,
      "emissiveFactor": [
        0,
        0,
        0
      ],
      "name": "Material.005",
      "pbrMetallicRoughness": {
        "baseColorFactor": [
          0.017325199999999999,
          0.41395799999999999,
          0.0014320100000000001,
          1
        ],
        "metallicFactor": 0,
        "roughnessFactor": 0.5
      }
    },
    {
      "doubleSided": true,
      "emissiveFactor": [
        0,
        0,
        0
      ],
      "name": "Material.004",
      "pbrMetallicRoughness": {
        "baseColorFactor": [
          0.17701700000000001,
          0.047501799999999997,
          0.014186600000000001,
          1
        ],
        "metallicFactor": 0,
        "roughnessFactor": 0.5
      }
    },
    {
      "doubleSided": true,
      "emissiveFactor": [
        0,
        0,
        0
      ],
      "name": "Material.003",
      "pbrMetallicRoughness": {
        "baseColorFactor": [
          0.80000000000000004,
          0.75436899999999996,
          0.032738999999999997,
          1
        ],
        "metallicFactor": 0,
        "roughnessFactor": 0.5
      }
    }
  ],
  "meshes": [
    {
      "primitives": [
        {
          "attributes": {
            "NORMAL": 1,
            "POSITION": 0,
            "TEXCOORD_0": 2
          },
          "indices": 3,
          "material": 0,
          "mode": 4
        }
      ]
    },
    {
      "primitives": [
        {
          "attributes": {
            "NORMAL": 5,
            "POSITION": 4,
            "TEXCOORD_0": 6
          },
          "indices": 7,
          "material": 1,
          "mode": 4
        }
      ]
    },
    {
      "primitives": [
        {
          "attributes": {
            "NORMAL": 9,
            "POSITION": 8,
            "TEXCOORD_0": 10
          },
          "indices": 11,
          "material": 2,
          "mode": 4
        }
      ]
    },
    {
      "primitives": [
        {
          "attributes": {
            "NORMAL": 13,
            "POSITION": 12,
            "TEXCOORD_0": 14
          },
          "indices": 15,
          "material": 3,
          "mode": 4
        }
      ]
    },
    {
      "primitives": [
        {
          "attributes": {
            "NORMAL": 17,
            "POSITION": 16,
            "TEXCOORD_0": 18
          },
          "indices": 19,
          "material": 4,
          "mode": 4
        }
      ]
    },
    {
      "primitives": [
        {
          "attributes": {
            "NORMAL": 21,
            "POSITION": 20,
            "TEXCOORD_0": 22
          },
          "indices": 23,
          "material": 5,
          "mode": 4
        }
      ]
    },
    {
      "primitives": [
        {
          "attributes": {
            "NORMAL": 25,
            "POSITION": 24,
            "TEXCOORD_0": 26
          },
          "indices": 27,
          "material": 6,
          "mode": 4
        }
      ]
    },
    {
      "primitives": [
        {
          "attributes": {
            "NORMAL": 29,
            "POSITION": 28,
            "TEXCOORD_0": 30
          },
          "indices": 31,
          "material": 7,
          "mode": 4
        }
      ]
    }
  ],
  "nodes": [
    {
      "children": [
        1
      ],
      "name": "RootNode (gltf orientation matrix)",
      "rotation": [
        -0.70710678118654746,
        -0,
        -0,
        0.70710678118654757
      ]
    },
    {
      "children": [
        2
      ],
      "name": "RootNode (model correction matrix)"
    },
    {
      "children": [
        3
      ],
      "name": "root"
    },
    {
      "children": [
        4,
        6,
        8,
        10,
        12,
        14,
        16,
        18
      ],
      "matrix": [
        1,
        0,
        0,
        0,
        0,
        2.2204460492503131e-16,
        1,
        0,
        0,
        -1,
        2.2204460492503131e-16,
        0,
        0,
        0,
        0,
        1
      ],
      "name": "GLTF_SceneRootNode"
    },
    {
      "children": [
        5
      ],
      "matrix": [
        1.532274603843689,
        0,
        0,
        0,
        0,
        1.1642234325408936,
        0,
        0,
        0,
        0,
        1.532274603843689,
        0,
        0,
        1.6405622959136963,
        0,
        1
      ],
      "name": "Icosphere_2"
    },
    {
      "mesh": 0,
      "name": ""
    },
    {
      "children": [
        7
      ],
      "matrix": [
        1.532274603843689,
        0,
        0,
        0,
        0,
        -1.1642234325408316,
        -3.7935215811237127e-07,
        0,
        0,
        4.9927845595777839e-07,
        -1.5322746038436073,
        0,
        0,
        0.84364080429077148,
        0,
        1
      ],
      "name": "Icosphere.001_3"
    },
    {
      "mesh": 1,
      "name": ""
    },
    {
      "children": [
        9
      ],
      "matrix": [
        1.2864013427235697,
        0,
        0.41381152929405718,
        0,
        -0,
        1.3513209819793701,
        0,
        0,
        -0.41381152929405718,
        0,
        1.2864013427235697,
        0,
        0,
        0.81722843647003174,
        0,
        1
      ],
      "name": "Plane_4"
    },
    {
      "mesh": 2,
      "name": ""
    },
    {
      "children": [
        11
      ],
      "matrix": [
        1.1553165912628174,
        0,
        0,
        0,
        0,
        0.094135954976081848,
        0,
        0,
        0,
        0,
        1.1553165912628174,
        0,
        0,
        0.97255265712738037,
        0,
        1
      ],
      "name": "Cylinder_5"
    },
    {
      "mesh": 3,
      "name": ""
    },
    {
      "children": [
        13
      ],
      "matrix": [
        1.390110969543457,
        0,
        0,
        0,
        0,
        3.6201109886169434,
        0,
        0,
        0,
        0,
        1.390110969543457,
        0,
        0.0095646753907203674,
        1.3200883865356445,
        -0.091502971947193146,
        1
      ],
      "name": "Plane.001_6"
    },
    {
      "mesh": 4,
      "name": ""
    },
    {
      "children": [
        15
      ],
      "matrix": [
        0.049954629463294167,
        0,
        1.3503973235062612,
        0,
        -0,
        1.3513209819793701,
        0,
        0,
        -1.3503973235062612,
        0,
        0.049954629463294167,
        0,
        0,
        1.2658162117004395,
        0,
        1
      ],
      "name": "Plane.002_7"
    },
    {
      "mesh": 5,
      "name": ""
    },
    {
      "children": [
        17
      ],
      "matrix": [
        1.1553165912628174,
        0,
        0,
        0,
        0,
        0.094135954976081848,
        0,
        0,
        0,
        0,
        1.1553165912628174,
        0,
        0,
        1.4211404323577881,
        0,
        1
      ],
      "name": "Cylinder.001_8"
    },
    {
      "mesh": 6,
      "name": ""
    },
    {
      "children": [
        19
      ],
      "matrix": [
        0.83812612266114028,
        0,
        -1.1090325108661394,
        0,
        0,
        3.6201109886169434,
        0,
        0,
        1.1090325108661394,
        0,
        0.83812612266114028,
        0,
        0.0095646753907203674,
        1.7686762809753418,
        -0.091502971947193146,
        1
      ],
      "name": "Plane.003_9"
    },
    {
      "mesh": 7,
      "name": ""
    }
  ],
  "scene": 0,
  "scenes": [
    {
      "name": "OSG_Scene",
      "nodes": [
        0
      ]
    }
  ]
}

