{
  "accessors": [
    {
      "bufferView": 2,
      "componentType": 5126,
      "count": 4730,
      "max": [
        3.8844239711761475,
        3.6147899627685547,
        1.3377330303192139
      ],
      "min": [
        -3.8844249248504639,
        -3.7835979461669922,
        -1.0326880216598511
      ],
      "type": "VEC3"
    },
    {
      "bufferView": 2,
      "byteOffset": 56760,
      "componentType": 5126,
      "count": 4730,
      "max": [
        1,
        1,
        1
      ],
      "min": [
        -1,
        -1,
        -1
      ],
      "type": "VEC3"
    },
    {
      "bufferView": 3,
      "componentType": 5126,
      "count": 4730,
      "max": [
        0.99999946355819702,
        1,
        0.99834948778152466,
        1
      ],
      "min": [
        -0.99999982118606567,
        -0.99995875358581543,
        -0.97854477167129517,
        -1
      ],
      "type": "VEC4"
    },
    {
      "bufferView": 1,
      "componentType": 5126,
      "count": 4730,
      "max": [
        0.99537402391433716,
        1.000601053237915
      ],
      "min": [
        -0.0012669999850913882,
        -0.00060400000074878335
      ],
      "type": "VEC2"
    },
    {
      "bufferView": 0,
      "componentType": 5125,
      "count": 15786,
      "max": [
        4729
      ],
      "min": [
        0
      ],
      "type": "SCALAR"
    },
    {
      "bufferView": 2,
      "byteOffset": 113520,
      "componentType": 5126,
      "count": 31912,
      "max": [
        2.1564419269561768,
        2.1564419269561768,
        2.1790390014648438
      ],
      "min": [
        -2.1564419269561768,
        -2.1564431190490723,
        -2.1790409088134766
      ],
      "type": "VEC3"
    },
    {
      "bufferView": 2,
      "byteOffset": 496464,
      "componentType": 5126,
      "count": 31912,
      "max": [
        1,
        1,
        1
      ],
      "min": [
        -1,
        -1,
        -1
      ],
      "type": "VEC3"
    },
    {
      "bufferView": 3,
      "byteOffset": 75680,
      "componentType": 5126,
      "count": 31912,
      "max": [
        0.9962848424911499,
        0.98062235116958618,
        0.3833252489566803,
        1
      ],
      "min": [
        -0.99874621629714966,
        -0.99560821056365967,
        -0.38081377744674683,
        -1
      ],
      "type": "VEC4"
    },
    {
      "bufferView": 1,
      "byteOffset": 37840,
      "componentType": 5126,
      "count": 31912,
      "max": [
        0.98665797710418701,
        0.88110297918319702
      ],
      "min": [
        0.025283999741077423,
        0.16849100589752197
      ],
      "type": "VEC2"
    },
    {
      "bufferView": 0,
      "byteOffset": 63144,
      "componentType": 5125,
      "count": 190464,
      "max": [
        31911
      ],
      "min": [
        0
      ],
      "type": "SCALAR"
    }
  ],
  "asset": {
    "extras": {
      "author": "Omer Bhatti (https://sketchfab.com/bhxt)",
      "license": "CC-BY-4.0 (http://creativecommons.org/licenses/by/4.0/)",
      "source": "https://sketchfab.com/3d-models/saturn-hd-textures-7f5432d978404732bf333f914243a540",
      "title": "Saturn hd  textures"
    },
    "generator": "Sketchfab-5.63.0",
    "version": "2.0"
  },
  "bufferViews": [
    {
      "buffer": 0,
      "byteLength": 825000,
      "byteOffset": 0,
      "name": "floatBufferViews",
      "target": 34963
    },
    {
      "buffer": 0,
      "byteLength": 293136,
      "byteOffset": 825000,
      "byteStride": 8,
      "name": "floatBufferViews",
      "target": 34962
    },
    {
      "buffer": 0,
      "byteLength": 879408,
      "byteOffset": 1118136,
      "byteStride": 12,
      "name": "floatBufferViews",
      "target": 34962
    },
    {
      "buffer": 0,
      "byteLength": 586272,
      "byteOffset": 1997544,
      "byteStride": 16,
      "name": "floatBufferViews",
      "target": 34962
    }
  ],
  "buffers": [
    {
      "byteLength": 2583816,
      "uri": "scene.bin"
    }
  ],
  "images": [
    {
      "uri": "textures/Material.001_baseColor.png"
    },
    {
      "uri": "textures/None_baseColor.jpeg"
    }
  ],
  "materials": [
    {
      "alphaMode": "BLEND",
      "doubleSided": true,
      "name": "Material.001",
      "pbrMetallicRoughness": {
        "baseColorFactor": [
          1,
          1,
          1,
          0.77759986650000001
        ],
        "baseColorTexture": {
          "index": 0,
          "texCoord": 0
        },
        "metallicFactor": 0,
        "roughnessFactor": 0.8527031638
      }
    },
    {
      "doubleSided": true,
      "name": "None",
      "pbrMetallicRoughness": {
        "baseColorFactor": [
          1,
          1,
          1,
          1
        ],
        "baseColorTexture": {
          "index": 1,
          "texCoord": 0
        },
        "metallicFactor": 0.18972107860000001,
        "roughnessFactor": 0.74967286080000006
      }
    }
  ],
  "meshes": [
    {
      "primitives": [
        {
          "attributes": {
            "NORMAL": 1,
            "POSITION": 0,
            "TANGENT": 2,
            "TEXCOORD_0": 3
          },
          "indices": 4,
          "material": 0,
          "mode": 4
        }
      ]
    },
    {
      "primitives": [
        {
          "attributes": {
            "NORMAL": 6,
            "POSITION": 5,
            "TANGENT": 7,
            "TEXCOORD_0": 8
          },
          "indices": 9,
          "material": 1,
          "mode": 4
        }
      ]
    }
  ],
  "nodes": [
    {
      "children": [
        1
      ],
      "name": "RootNode (gltf orientation matrix)",
      "rotation": [
        -0.70710678118654746,
        -0,
        -0,
        0.70710678118654757
      ]
    },
    {
      "children": [
        2
      ],
      "matrix": [
        0,
        1,
        0,
        0,
        -0.9588623046875,
        0,
        0.28387153148651123,
        0,
        0.28387153148651123,
        0,
        0.9588623046875,
        0,
        -0.080945208668708801,
        -0.084410667419433594,
        0.023962801322340965,
        1
      ],
      "name": "RootNode (model correction matrix)"
    },
    {
      "children": [
        3,
        4
      ],
      "name": "saturn1.obj.cleaner.materialmerger.gles"
    },
    {
      "mesh": 0,
      "name": ""
    },
    {
      "mesh": 1,
      "name": ""
    }
  ],
  "samplers": [
    {
      "magFilter": 9729,
      "minFilter": 9987,
      "wrapS": 10497,
      "wrapT": 10497
    }
  ],
  "scene": 0,
  "scenes": [
    {
      "name": "OSG_Scene",
      "nodes": [
        0
      ]
    }
  ],
  "textures": [
    {
      "sampler": 0,
      "source": 0
    },
    {
      "sampler": 0,
      "source": 1
    }
  ]
}

